<mxfile host="65bd71144e">
    <diagram id="DhXr3LgTCIUYxg1wY4I-" name="第 1 页">
        <mxGraphModel dx="360" dy="539" grid="1" gridSize="10" guides="1" tooltips="1" connect="1" arrows="1" fold="1" page="1" pageScale="1" pageWidth="1169" pageHeight="827" math="0" shadow="0">
            <root>
                <mxCell id="0"/>
                <mxCell id="1" parent="0"/>
                <mxCell id="1edKkdgHh0n9XkDn8Mb9-1" value="" style="shape=image;verticalLabelPosition=bottom;labelBackgroundColor=#ffffff;verticalAlign=top;aspect=fixed;imageAspect=0;image=data:image/png,iVBORw0KGgoAAAANSUhEUgAAAkkAAAFQCAYAAACrser6AAAgAElEQVR4Ae293a9lx3ne6b9Bl7nxDDD3vGtfSIBuxBvdiJIwCKCbQIhBtAICjcOwY/ADhESbEEVDoRqyiQSddNyMMoCoEEkYtkFCAwyB8WAoyxChGcaxQM7Y1kyjZ3SaJJyIx0nHwQp+u/XsfvvtqvW1a+29z95PAadrrfp861drrXq61tpVv9YNuH/1b97o/s7fvbj+49zOBEzABEzABEzABA6dwK8NNfD09Hb3zRf/4Uok/f3fenooueNNwARMwARMwARM4CAIDIokWolQYjbp3//Zz0Y1+sOPPuouXTrp8IfclLRDZe1b/JS2TUm7b+0csmdK26akHap33+KntG1K2n1r55A9U9o2Je1QvfsWP6Vt77zzo+6Fb724b01oYo853MVoDvvJYZRIwvQpAumrX/3N7v33P1jfQBx/+jOf7f67//5/6B754pcfEE/ff/UHTR8APExK9awN2sIBF7w5dKu+Ngdz0C3n++Iuiakczs7OVv/xRCy1cufxOWkOd3vfHLbHYbRIGnNj0nHPPPPsfQIph3FjIoqim6KgY77SMYLs1R/8ywfsKKVdKiy3mXpymDncFdHmYA7xmeHroX49tJxNOs/PSXO4O3KZw3Y4NBVJiJ8sgLIQKT0Es4DIeaac/97vv7wSadSj/3VJhN248Yer2SxmtGQnDwse0v/sn11fx8V8zEiRPs6CkZfy5UrnKl9psm8Od4kcAofchnzOtXAM10Nudz43h7vX/FwOelbxvNzUTX1OYjPPSD6jiM9C7OD5WnpO5v7P5+bg64FrQG5fr4dmIqk0fazGy+cm/8IjX7pvpklx3EASJwqb6lM+Nz8u3pCE87qPMFxU4BxH0aSO0o0vm+IDijAeFnpYRdvN4e7rgGPiwDWjaysLfnO4OzNiDptzgOHYbz1XD7rKP3Oek1zfPEPJG69xbEIglZ6TS90X5nC3Y81hOxyaiaQoIkr3JvHcZLqZYpp408XwKce5DIkdysiiJpYbb+QYTh4NfITHdPHizO3O57FMjs3hLpFD4hD7PF83MS5fC4d2PcS2msOzKzHRkkPkW7qWxoTNeU6SB3FGW7LL7YvPyWhvThfjcpmcE18bL4bylsrLYeZwl4g5DHNoJpLyTRAvSuL0v5AYruMWFz116LWYfImcKJhUp3zSkDe7mCc/JOKFpWlr5TeHuySOiYNE882bN1fCmnM5c/D10Op6iM8kXV9Tfa5HPR/lDz0ndX3HdqjeaFN+Tipf6/si1ik7pvrmcJeYOQxzWFwkcUEP/dKMm5R00XGDkS+HxzQ6jqJFYXS+XonVhFApn/LHG5H8PFAoU46wUrmkITw7c7hL5BA56Dqi3xH80R3T9WAOd58PS3DgeZh/Jcp1to3nZN9/Yvuek+bg6yGOm+f1emgmkvS/Bnw5bi5mkPQ/FvwsmKKYUb6pN3+pDN3YH374YfWXbiWbZUO0nQ8W4y9wSMPDoSSGSmXGssTCHO7/GF7cS315Hq4HrgWuieyO7Xowh7tXQGsOfeWN/c9k6d4a85wkH/WXXHy2lZ6TfXbn76tiWbXnZF955jBNNPt6uHtFD3FoJpKornYBl24uwrgp+N9RFFZKS1ztI2+l2ZVfGviiLeZwl8axcOBaRUTzP6WSMwdfD/G6mHo91P5DRpn7/JxsfV+Yw92ryBy2y6GpSBoSD/FB0ZeWh0jfN0yxnG0ec9NjV54Fyjb0tW1KWnO4S2tfOfA/EP7Hq9e6uW91fujXgznc7eklOFAm13/JHdN9YQ73rjFfD/f/Qj3fG63vi6YiKRvrcxMwARMwARMwARM4rwQsks5rz9luEzABEzABEzCBRQlYJC2K14WbgAmYgAmYgAmcVwIWSee152y3CZiACZiACZjAogQOTiR98H/93923v/Pd7uzsrwfB/fhPftK9/I+uDqZzAhMwARMwARMwgeMj0Fwk/at/88Yoij//o7/oXvjU11d/Lz/0Unf7Z6ej8vUl+uijj7unn32uQyjJIZZ+55u/2/2dv3tx9Ycwig6R9K9fH2ez8vH1vNbx4FcX0f3in/7T7v2vfKX7r598EoM7wvlr5X7+W7/V/dXbbxeLq9lQTDwQSDtoTwvbsfedX/u11d/Y8shDW/fZ/ZfT0+693/iNB/qDn+rqOuHYzgRMwARM4HwRaC6SECPffPEfdqent6skEEQII4QS7u1v/LB7/dHXujtnd6p5xkSUBA+iSCKI48cvP9UhpuRKwkpxNR+RlMWR0tYECuFjhYHK6vP3SSRNbVspPe0p8UGkEYcQ2VdXE0myF4FkkSQa9k3ABEzg/BBYRCQhlP7+bz3d1WaVfvq9n3SvPHy1O7v9yUoYIZDibBLryoxdPVWoETvMGEUBpDj5tTSIKAkppe3z+0RSnvk4+9M/7d799V9fz6Awk8I54bgYz2wEA65mbzSDokEYERFnYzQro3yyOdug8Ll+nyAjLs6c0Z4//9rX1jNpJUFUClObS0KplJ623Hz++e7WlStrtqW8c9s8JR+202b1ac5rkZSJ+NwETMAEzgeBxUSSXm9dvXb9gVklzRwhkhBIf/KP37lvZmmOSBrzfRFpEFL5e6VaeK0L+0RSLU9poEf8IDDwcYgbCY448Jby9gmXmg2tw7GBv+jmiiSVUSozc4ppxYt6/+zzn1+zVJp98C2S9qEXbIMJmIAJTCewuEji1Vt2EklvPfFGx6xSfv2W0485HxJJfKd0cvnJ+75XUrlTPvYmTyuRVJoV0qBPPQz8zDrFMNm8S5HUN+uzqUiifbQttxmhCK/oIoOakIrpd3VskbQr8q7XBEzABDYjsJhIGnrdxkfbCCQc3ybF121zmtQnkhBBFx876UhTcn15S+lbiiQG+pqT4CANwiS6KBBi+DaPsSHbL5tlb2kWrBQmu0tlEpfLJSwysEgSQfsmYAImYAKtCCwikkqzR9HgPHOkmSV9uD3ndVvteyPC+Vi7JpCwq+U3SbGd8RhhkAUFAzuviBAA2cW4Ul7KInyKE1dEXiuHHXHWh7botRfHzIRlOznPYX2zU7I1iiLC4rlFkijZNwETMAETaEWguUiqfaydDY5LAOgjbqXRYD71F0GlX7cRpu+j5MePtBFRedkA2VHz58wkMYjzgXX+cDu/ckM8ZMGgc0SBnAQI5eUPt5Um++xSz2asQxuy5nxD51n0YKfs4uNqCSJ8fWwuX6/QyKN0tfpoc/wo3CKpRsrhJmACJmACLQg0F0ktjJpbxhzBUxJWQ/XPEUlDZW4rHttbziRty27qkViUsNpm3ZvU5W+SNqHnvCZgAiawOwIHJZLAOOUj7KnfIqmbEBlaJLC2XpLS7ov//vsfdJ/+zGfPrUDaF45T7EAc6TqZOis6pR6nNQETMAETWIbAwYmkZTC5VBMwARMwARMwgWMjYJF0bD3u9pqACZiACZiACYwiYJE0CpMTmYAJmIAJmIAJHBsBi6Rj63G31wRMwARMwARMYBQBi6RRmJzIBEzABEzABEzg2AgcnEjaxq/bju0iObb2sk4Xa0nhb+L80/9N6DmvCZiACeyeQHORNHYxSZrOtiRsT8LCki1caZ0kfuavRSTx88rbc9dJ0k+78xIALIgYV6BWuwhnfZ+8ICLxhI9dEFLl9fk1G/ryzInTApmt1i1CVLBMAcsV7Mppwc3cr/o5f2mNKS0JkX/mXytL4VxDu27vrji7XhMwARM4DwSaiySECNuSnJ7e7m0/W5EgkFqKpCHBwywTq2sjpuRKwkpxNZ9BMQ+iSlsTKBJJCIq4cjb5LJK6DuEA1xs3/rDLYkNst+FTdxZCnBOe4yR2uBaUJtuI4PvqV3+zOCtF/meeeXanojDb63MTMAETMIF7BBYRSQilvg1u2bvtrSfe6G69e3O1sW2eSZqzLQli53e++bv3CaB7zbx7xCwSac7O/vq+qJZ7t2URpNkWbcMhP842lWaX7jNw4km2gexxGxNsQLThWMWarT5uXbmy3jJEcZRDHLaSJ892KS9lb+oQE7/3+y+vBAPCAQGBQ4BwzusvZl4e+eKX14ID0UIewojTdisSL5rtUzjXFYIlzlRFcTMkWrJIim2O5cRwjokrieqh+nI5PjcBEzABE9gugcVEkl5xXb12vTqrlDe6VdPniKS+1bMRQdhz8bGT1Yrcqkd+TTwpPvu1QS+ni+fsYYaYQIBIhMT4bR5HcaOtPjS7FTeKRSSxQa1E0JK2I0AQElk4EBZfSZGOPxx+FE21fsl5lJ/rLH57hHiKAi33Cfmoo+QIV7k5vpYvtzXn87kJmIAJmMBuCSwuknj1VnM1kVRL3xfeJ5KUj9dtJ5effEAoTfnYm7Jqg7HqyT5CBBGCAEFoID627fKMlsRPFEzZptKMVE7T4jyLBUSFBAciqSZMYrpsB3k0k4Sv8qIQomyFkz/G5fI4J23NFsJjWTF/rQ253TGPj03ABEzABHZPYDGR1Pe6Tc3etkjiNRuv2xBU0Y0RWDE9AyID3xiH0NArtuhvezYJkabZoiiM4nFuz7ZEEuKE2aIoavSKrCYwsBVRUhIm5IkzTDmdXuv9wR9cX7+6o7ylRFKuX5wtkkTCvgmYgAnsJ4FFRFLf7FHEUBNJc163jfkmqfThNva0/CYptk/HzOJoJolvfPT6SvE1Xxxqsxe1fKVw6pcwQ/wsPZOEzVGolGxSWBYR8TXYXJEkkSWGUUxRJkIJkRTdkGihjFpfEB7riOUSR53ZDdWX0/vcBEzABExguwSai6QxSwCc3f6ke+Xhq+tft/ELN84Jx5UGtjFYSr9u0/dIfJP0+OWnHviwu/Wv20p2IooQR1EsldLlMAZRBnsN+Dl+yjk2IIyYzcIWibWlZpIQDPFbopqtamMWERIWc0SSymRmCqGGIIoCRtdXrhMbS0KIsDjLxbHyYmeMy21mdsq/bqv1vsNNwARMYL8JNBdJu2zuHMFTElZDbdAAPpSuRTx18XfeHCJi7EzSttvW91pNAksiaBPbhsoi3ksAbELYeU3ABExgWQIHJZJANeUj7KnfIqkr4uxBi8FU5UZf3+mcN4EkYbCPAklMh2yLr/tin0w9ZgYqzmApvxgxA5VnnpTGvgmYgAmYwO4JHJxI2j1SW2ACJmACJmACJnAIBCySDqEX3QYTMAETMAETMIHmBCySmiN1gSZgAiZgAiZgAodAwCLpEHrRbTABEzABEzABE2hOwCKpOVIXaAImYAImYAImcAgEDk4kbePXbYfQ8W5DOwLa8oVFOu2WJ8DaXmy6rMVRl6/RNZiACRwrgeYiacxiksB++xs/XC8m+fqjr3V3zu5s3AeldZK0FYk23M1bksxdJ0kLCOYlAHhw8wDnQR4d4S0f6qygXRuUazZEe8Ye1wak1u0Za88u0sFZW8qU+nCqSKI8bRGzi/actzozr9o12bJdqoN+f+83fmO1EGzL8seWpXv5lz/+cffehQvr1frH3n9cmzyP8HFcd3p2TGkXfZDTeymLsb3odOeZQHORhBhhW5LT09tVLmxH8urf/herFba1+vZPv3f/fmrVzD0RJcGDKGLVbRzHedXtkrDqqWIVxdpFWRwpjx5qhy6SeOjysM3tFIfz7NMmrUge2zF2YCKPBlkGl+yIg50Grhx/jOd9bLNI2iafLDK2WTd1wYVrhRXzW4kkysyih/PSf+7U3pxe4fheFDXS8PGhEVhEJCGUxmxwC0xmkJhJYmZJTttGlBbiU5rsI3bYvBa/5mppWu7dlh/ocTsQzUZo3zTsjPH6n5oGWB6OOB7UxOnhpnLkK5/anW1Q+FwfOygzu1I47SGcB+6u/xee7R1zHlnn9KWBnDD1Q2aksnI45ZbKIj3sEGiUGa+TbMshnet64bqXi/cFLEiDg6V4w1CO9H/2+c/fJzzJU2KvPPJjH2ahQJ/EmRjyZNuiHerzko2xnnzPypbsk4d2ZDsIv/n886vnQuRDfj0/ZEOsi7LISxu4ziJzwnP7ZU8p/TrOK8cLhf0DJLCYSNLrravXrg/OKr380EtdnEmaI5LGrJ5NGoQUr+Ciq4XHNPG4byYppovHPID4iy4/+Hig6yHFw0uzGaW8YweAWF/r49KDUwOIBic9lFvXvUR5GuBke66j1A9KU+sPDVhDfU85ql9p8Sn3kB3ty22EA4KHawlHf+Q0pb4gjfou31s1hqTXPVdKM1ROvE/JX7KL8Fo5uj4kaPDHiGPqUbrMCw7E99W7iiz8A48oqgpJHgjyTNIDSBxwQAQWF0m8eqs5zSK1+CZpSCTxQffJ5SdX25Zke6Z87E3eViKJB1J8OHIcH9gSHDFMtscBQWG78PnfrAYz6uc4/g+1Nmjswta+OrE7vs4ope1rS19/aCAkTXSUp0Gd8DyQEpfzxPzn+VhMNJjHtuR253PSlvoipovHsex83NdvpM19ojCEhO5diRXiqJfw3G9qb0ybbZlyHttP2foPVbY3n4+pgzZMsdMiaQxVpzmvBBYTSUOv21oKJOD3iSRE0MXHTlZpSh3Vl7eUvqVIyg/TWJ8EB2l4EEY39HCPaZc8zoORbJa98WG+pB0tymZAYfCjTSXX15Zaf2hwJG92mVUe0DLbnP8QzuHGX3S53fmctKW+gDVlwTGL91h+PK71m9LkPiE82kydEijKg4/NY8SSrg8JLvwxAiW2P9qQ7c3n0cbSMXZ7JqlExmHHSmARkdQ3eyTQfIP0ysNXVx9vK0z+nNdtte+NCOdjbYRQzbX8JqlWBw+1PBjwAIuvFWLeGFfKS1mET3Hiishr5eIDmjLzwB8f5q3qXLIcuDNIlNj2taU02KosBp6ai/lIz6whPq4kDmrlnOdwGMTZUq4hfV8khqSJrtYXhH/46qure41rc8iRPtad0+c+IR5byIejj2qiJt8LsezY7zF87HFsf7wHOaY9uuaoZ6zoGWJRs80zSTUyDj8EAs1F0pglAH7+R3+x/vn/C5/6+uo4CiYN5lM+3KYzSr9uI0zfR8nXr93Ig4h6+tnniq/hah08ZyZJD/v8P0UeZvF/kTyo9KDTg1jncaDgAczDmbxjH4I8zC5dOln9cdzKxcE8DwzxYd6qvqXLiYMOddGG2Eccx0EoxmnAVJ8pXc3myCsPyJFrLf+hhOfrhGtd17ZEz1BfEK/7QvfOGD6qi/okmOL9qv5VnOognFmkOJMUyyJe/R/zxHrG2FdKE3nl65U6ZTPssJv29DnyqH196UpxFkklKg47FALNRdIuwcwRPCVhNdSGOSJpqMxtxWN7y5kk7OYBXJsR21a7zms9Y8XUeW2f7T58AhZJh9/Hx9zCgxJJdOSUj7CnfoukCwWRUVtMUmn2zX///Q+6T3/ms80F0r610/aYgAlsh4BmpnkW8mzhGWNnAodG4OBE0qF1kNtjAiZgAiZgAiawGwIWSbvh7lpNwARMwARMwAT2nIBF0p53kM0zARMwARMwARPYDQGLpN1wd60mYAImYAImYAJ7TsAiac87yOaZgAmYgAmYgAnshsDBiaRt/LptN13lWk3ABEzABEzABLZJoLlIGrOY5NntT1arbZcWktyk8aV1ktjMlk1ttZBkXnl77jpJtSUAWORt7qJsm7Q95m1pg9bxmbI4X7SlxXHNBi06Sl888sUvd5zbmYAJmIAJmEArAs1FEmKEbUlOT2+PslGCiW1KNnUlwYMo0grbHLNFCWJKriSsFFfz+xaTbClQavUPhbe0oSZQhmxoGT9kA+KIlcQtklpSd1kmYAImYAKLiCSE0tAGt0IvkfTT793bW00zBFO2JUHsMGMUBZDqkF9L03LvttJWEoiWW1eurLcRiduLxG0MtL2ItqdgRoptLsjLNgOazZFo0NYD2vpA7SzZoLg5PjbmOthAVHb12aZZtaE2xW0bxCHaWrJB8RZJImHfBEzABEygJYHFRJJeb129dr04qxT3b3v90de6O2d31u2aI5LGrJ5NGoQUr+Ciq4XHNPG4byYpptMx4kYDf98WHhI3pCE9+RAHCI2Pb9xYb5AbBUNfeap/CV92IdgQONqQNNdFG/jraxNxtBEfBweJq1xe6dwiqUTFYSZgAiZgApsSWFwk8eqtzyGOEElZKPXlKcUNiSQ+6D65/GRxI9spH3tT9xyRhFDAISrihpiEa0YIH/ERRYMEURZQMY82VS1xWSpMdlF+tJdz4qJ9EkkSQsqrNuHH9BxbJC3Vcy7XBEzABExgLIHFRNLY120Yyqu2Vx6+2vHqba7rE0mIoIuPnXSkKbm+vKX0rUQSMzDvXbiwmomhHomGKDqyoIhxJdu2FSa7qC/aRBs0a0YcAmmMSKK8uc4zSXPJOZ8JmIAJmEAfgUVE0tDsUTRI3yTFmaQ5r9tq3xsRzsfaNYGELS2/SYpt07GEAudxJim+ptJ3RoiFKDokRiSgKIMwypzqxBWRt6mTXZQT7cVOzQIRrteGMY3yqk3E8boOHnOcRdIcas5jAiZgAiYwRKC5SBqzBMDtn512Lz/0UqclAKJAwmAN5lM+3CZf6ddthOn7KPn6tRt5EFFPP/tc8TVcDV6rmSTKRzDwekkfaHPeJyjII/GhV1QSJTV7Fa5du/klGMebOAkdyoj2SuxhGwKJD7yHZpIoA8Gk9uBPEYEWSZv0pPOagAmYgAnUCDQXSbWKthE+R/CUhNWQrVNF0lB524zH9hYzSdu0eagui6QhQo43ARMwAROYQ+CgRBIApnyEPfVbJAFGZNQWk1SaffPff/+D7tOf+exBCSTNOHoxyX272myPCZiACRwGgYMTSYfRLW6FCZiACZiACZjArglYJO26B1y/CZiACZiACZjAXhKwSNrLbrFRJmACJmACJmACuyZgkbTrHnD9JmACJmACJmACe0nAImkvu8VGmYAJmIAJmIAJ7JrAwYmkbfy6bdeddqj1s1ZSXK37UNt5HtrlvjgPvWQbTcAElibQXCSNWUxSjdJq2ywsyQKTm7rSOklsZsumtlpIMq+8PXedpNoSACyCWFrckfApCyQOsYiLOea0NRtyujHnWhxyru01O+PK47Kj1cAcF7dU2fbrBEq8WvVFvda7W9ZoAVHq24XT1kC//PGPV/etrvMSk5J9+TqulVfKqzDqVL0Ks28CNQKle1MLBTMusdQLS77YtSHQXCQhRtiW5PT09qCFb3/jh931z11d/bUQSSXBgyjSCtscs0UJYkquJKwUV/P7FpPkYXdsIqn2kGfAYDNfBpLs8uCS48ec87AosSYvNu1q4B1j+7bT9A36fXHbsLMmpLdRN9coW+L8p7/8y2YiqVQe1zvXaumahD8MSvfJNhgcSh2wheOQ6+uLobz7EE87azPuiKVnnnnWIqlhRy0ikhBKQxvc/vyP/mK1Ncm//9f/7gGRpEUCp2xLgthhxigKoMyplqbl3m35RuUhzJYj+h8zPueE42K8LnzdxLrheYgSp4E/lsWx8qm92QaFz/X7BjHiakKllI8w2S8Oam9uC+3Oe7plQcZ5qX64lgQa6W9dubLuE+w5dKdrjOtCLjKP3GN4vK7G9IXKzr6uX/V7tIO0Q9dJtCPaR3mx/3I99PWQgw3XGHmjHZxzXbGtDvXoWlV5pFV7YlytPPLJvtx+4mLdqkM2cR2XbFA6+3f/UxSvkyF2tb6gv3k+qG/jNRT7XHVRDtcJf1wHyvuLf/JPVt2ie4/ylCf2F2WWnl8xTT6mzNKzjXQWSZnW5ueLiSS93rp67foDs0p3zu507Nf20+/9ZPWajdmkOJM0RySNWT2bNAgpXsFFVwuPaeJx30xSTBePudniDUecbjB8HA9P3TAMBtwI3BClvKWHaqxvG8fYwF/J5baRhnYofWyf8tfyiFspD3nhVnsA5QGJspSW+rIIky2H4nP9vHfhwlqUq130g7iWuJfCSK88tb5Q+fJJxzWd+0Hx+NjSF0+crpt4HMvgONoX48ijQU++yovp4jHt5zpReylD9yZhyj+Wg8oWD5Wr8NLAl22I9Sqf/bv9rr4Rj8wu9p/SlPqCflVZ9IkEtPLI13UY61Hej2/cWF0fxFEWPq5kg/JgSwtnkdSC4v1lLC6SePWWHeLolYevdnyThDjKIimnH3M+JJL4oPvk8pPFjWynfOyNLa1EEjeNHtrydYNSDzcp/zuJYWLBzUX+XbjSwyXbwQM9DgTkkegjbT4nLD9UCIuDRzzO9cEi/o9eefmfYXTRrpINMe15P4aJBGFsS+acz0lbCov843EsOx+PSVe6lukn3RP4pMFRXu2e0P2ktNmWKee5/Tr/zz//+eB1PFSP7p9sJ9cq7ZNTnfg42pfzKO2x+vAoMVmz+8UvVmjW579iKV65LygLzricp3RNxjTKq37S9Riv49KzXLa08C2SWlC8v4zFRFLf6zZmkV741Ncf+OMV3FzXJ5IQQRcfO+lIU3J9eUvpW4qk0g2uOjXAkIabOTrdkDFs28fYULI/PjhkUxYk+Zx0pXyEa/DgIaUHmMrFJ6wkBkp1HJNIgg3XUJ5JypzzOflKYYQP9QVpotM1nK/fmCZfy9lmDToxD2nGiqXSYFW6bmP5uf1qB+FDYj+Wk4/hwEDJdZhdbme2Icfn/Md6DsssPtbsfiWS6L88K1Tqi3gtrss4PX3gPlJfxDTKqzj52+wXi6T2tBcRSaXZo5rppZmkOa/bat8bEc7H2jWBhF0tv0mqtZMbOT+YucFqr3tiXCkvZZUetLX6CRdXRF4rhx35AVV7OESbsT3P/MQHTrSP8njXT37SREc5uf4Yn20hvbiVRFTMeyjHEhSwwGlw0Dlcs8ic0xclXpRD2aqrlIb6Y3wc0GQrabKr2Ug6iRryz3G5bK4Z2YCvawg/X8e1+oZY5Osx2wAj2VCr41jD6Yd4Da/Z/Uokxf6DUa0v4KtrcV3Gr0SSRFa8JmMa5VU/EVd7vqufyNP3/FK6sb5F0lhS49M1F0lTlgDAzFYiibJKv24jTN9Hydev3ciDiHr62eeKr1MongIAACAASURBVOFqGOfMJOmmZOo1PlS5oeJ0LDezbkKOcTqPD0gNfOSND4eazYRzA126dLL647iVw85oa/yfdqwj2ozoUbrIRizig0Pxsf2UC7uYLtal4zzwjLVV+Q/FhyGs8HHxuvvw1VfXcWKtfsCPjBWf+6KPU+x3yqNuHGXEeuJ9oTjCJJDJQ//FPLruSuWpnlVlE/9RO1VXZBDbE6/jvip0Dw/ZRLzYYkPuM8X11XWscZkdz8VS//X1BXzVR5l/6ZqMaZQ32sGxbMCP1yv9RJ54bW3adxZJmxJ8MH9zkfRgFdsLmSN4SsJqyOI5ImmozG3FY3vLmaRsd3xA5LhdnfNg4mFkZwL7ToBBd2j2Yd/bsA/2rcXLr2aS9sGmbdhgkdSe8kGJJPBM+Qh76rdIwo/IqC0mqTT75rO4GIuMLSmQ9q3NtscETOA4CRybSNJbAi8m2f56PziR1B6RSzQBEzABEzABEzhGAhZJx9jrbrMJmIAJmIAJmMAgAYukQUROYAImYAImYAImcIwELJKOsdfdZhMwARMwARMwgUECFkmDiJzABEzABEzABEzgGAkcnEjaxq/bjvFCcZtNwARMwARM4NgINBdJYxaTZM829m6LW5Own9umrrROEpvZsqmtFpLMK2/PXSeptgQAa/K0XBxsDpOWNmjhtbwI2hy75uap2aAVxOmLR7745dWK4nPrcD4TMAETMAETyASaiyTECNuSnJ7eznWtzyWSNtmrbV1YOCgJHkSRVtjmmC1KEFNyJWGluJrPWkPvvPOjYnRLgVKsYERgSxtqAmWEGc2SDNmAWGIlcXw7EzABEzABE2hFYBGRhFDq2+B2SCRphuD7r/5gdDsRO8wYRQGUM9fStNy7rbTiNKKF7QvYYoGl6ePqzxxr2XptL6KF0JiR0rYMcUl7iQblo87oSjbE+KnH2JjrYKNT2iQbNNOUbdOs2lCb4lYP4hDtLNmgeIskkbBvAiZgAibQksBiIkmvt65eu/7ArJJEkl638eqNMLk5ImnM6tmkQUjxCi66WnhME4/7ZpJiOh0jIDTwIxZq2w5I3JCG9ORDHCA0Pr5xYy2uomDoK0/1L+HLLkQRAkebP+a6aAN/fW0ijjbi4+AgcZXLK51bJJWoOMwETMAETGBTAouLJF699bk7Z3e61x99bfXH8Vw3JJL4oPvk8pPFjWynfOyNfXNEEkIBh6jQxq6cE67ZGHzERxQNEkRZQMU8cWPQVSVb+Ed2UVW0l3Pion0SSRJCyqs24cf0HFskbaETXYUJmIAJmEAvgcVEUt/rtmzR29/44aIiCRF08bGTDiFVckMCK+dpJZKYgXnvwoXVTAx1SDRE0ZEFRYzLdm3zXHZRZ7SJNmjWjDgE0hiRRHlznWeS5pJzPhMwARMwgT4Ci4ikodmjaJBevSGU5Oa8bqt9b0Q4H2vXBBJ1tvwmSW2IvoQCYXEmKb6m0rc8iIUoOiRGJKAogzDKnOrEFZG3qZNdlBPtxU7NAhGu14YxjfKqTcTVXkGOsdMiaQwlpzEBEzABE5hKoLlImrMEQBRINECD+ZQPt8lX+nUbYfo+Sr5+7UYeRNTTzz5XfA1Xg9lqJonyEQy8XtIH2pz3CQrySHzoFZVESc1ehWunaH4JxvEmTkKHMqK9EnvYhkDiA++hmSTKQDCpPfhTRKBF0iY96bwmYAImYAI1As1FUq2ibYTPETwlYTVk61SRNFTeNuOxvcVM0jZtHqrLImmIkONNwARMwATmEDgokQSAKR9hT/0WSYARGbXFJJVm3/z33/+g+/RnPntQAkkzjl5Mct+uNttjAiZgAodB4OBE0mF0i1thAiZgAiZgAiawawIWSbvuAddvAiZgAiZgAiawlwQskvayW2yUCZiACZiACZjArglYJO26B1y/CZiACZiACZjAXhKwSNrLbrFRJmACJmACJmACuyZwcCJpG79u23WnuX4TMAETMAETMIHlCTQXSWMWk1SzWERSm9z+9HvlLUOUdoxfWieJzWzZ1FYLSeaVt+euk1RbAoBFEEuLOxI+ZYHEofbGxRxz2poNOd2Ycy0OOdf2PjvH1D8nTVzcck5+5zkuAlqclQVNo3vnnR+tl/o4tLXFYjt9bAImUCfQXCQhRtiW5PT0drXWVpva5gpKggdRpBW2OWaLEsSUXElYKa7m88DkAVpyNYFC+FyhUaqnT3zUbCiVMxQ2RiTV2sa2K2zmSxlDjva05ENZedAbssHx9xOg3+JmzPfH3n8G69J/Du5PtZ9nNZEka7nXLZJEw74JHBeBRUQSQqlvg9vbPzvtrn/uaodfclokcMq2JIgdZoyiAMpl19K03LuNwYIBXw6hwJYjccsNzgnHxXhtDCthonL0ENfAH8viWPlUZ7ZB4XP9PkFGXG1wzPmw/9aVK2seah92qc2thFJNoPXZMJfPIeaL15zaN8SO+Hwt0A+6RvK1ynUar2XOcZSDOOM+wafMeI1TnvKRNjrdTyorxtWOh8SgRVKNnMNN4PAJLCaS9Hrr6rXrD8wq/fyP/qJ7+aGXureeeGP9uo0wuTkiaczq2aRBSPEKLrpaeEwTj/tmkmK6eMzDPD/QGYgYAPBxPNg1yMQHdylvFiCxrm0dYwN/JZfbRhraocFOoigPZn1llurpCysxijZg4yYb6/bVfZ7j4EI/5b6J7Gr9Rx71MQyyaKFPKCe7eL2oHspCKH1848Z6Ros45S/ZkOvL9cw5t0iaQ815TOAwCCwuknj1lh3fH/Etkr5D4tukVx6+2p3dHn4tk8vS+ZBI4oPuk8tPFjeynfKxN/W1EkkMAvofsXyJJOrRAz+Gqb0lAaC4pX0NThqsSvXFwUzxOSyfKx1tK7VZ8WN9+LHBbnSxTtox9nVSLOOQj2H23oUL65nO2NbIjvB8rrQSN5TFH4xhnfMQF2dZJa5UrvIioCjjk5/8ZHVd6F6RT31LOoukJem6bBPYbwKLiaS+122aSdLrtnw+B1mfSEIEXXzspCNNyfXlLaVvKZIQBDWnQYI0GmSUdpciKdpQsj/OCigtvgY/hZGXsOgIK5UZ04w9LomgaEMpfmzZh5yubyYp9lep/xAsEjsw0jWs61f8OUcIq7x4zSiN8kaRtAtRa5F0yFe722YC/QQWEUml2aNoBuKI1216xcZM0uuPvtbxQTduzuu22vdGhPOxdk0gUV/Lb5JiO+MxD/48+PPwr73uiXGlvKUBKtZXOhbXlh+hYkee9WGgzG3FHg1+HMf2cZ4HzZL9c8KyLdEGi6Q6UfoHsQMvucgu9x9piM/XgoROTSTRP8orcaV6lJe6JI6IK11bspE8zE6pXIVv4lskbULPeU3gfBNoLpLGLgGAQNLP//OrNg3mUz7cphtKv24jTN9Hydev3ciDiHr62eeKr+FqXTtnJkmDDq8IeIjzMMfxMNdrA3wGgSwYdB4HBw0G5NHgUrNX4WdnZ92lSyerP45bOQ1qlNcnPEgX2xoHMtpGfGuX7Rlra2s7zmN5JXa1/qMvs0CizRI6lIWL/OO1z2tR8nOfKI3yRpFEOaSTHfna130Rr61N2VskbUrQ+U3g/BJoLpJ2iWKO4CkJq6E2zBFJQ2VuKx7bW84kZbsZnKKYi/Ea/GLYNo6pt2bTNuo/lDp21X+75meRtOsecP0msDsCByWSwDjlI+yp3yKpmxAZtcUklWbf/Pff/6D79Gc+u6hAGmrzsQ6yQ1zOS/yx9R/iSPf5kv+xOC/9bztN4BgJHJxIOsZOdJtNwARMwARMwATaE7BIas/UJZqACZiACZiACRwAAYukA+hEN8EETMAETMAETKA9AYuk9kxdogmYgAmYgAmYwAEQsEg6gE50E0zABEzABEzABNoTODiRtI1ft7XvBpdoAiZgAiZgAiawbwSai6Qxi0nGhSRrC0rOAVVaJ4nNbNnUVgtJ5pW3566TpJ8G8zPh6PiZdGlRvZhm6eOWNmjxPspc2rHG0gOLA/5qAUx4s4QBSxnYmYAJmIAJmMA2CDQXSYgRtiU5Pb09yn42tWXFbbYm2dSVBA+iSCtsc8wWJYgpuZKwUlzNZ82ULI6UtqVAUZlT/ZY27Fokqe2sEP7MM89aJAmIfRMwARMwgcUJLCKSEEp9G9zGVpU2t52zLQlihxmjKIBiPRzX0rTcu6204jSi5daVK+sdz+PqzxznLRbYhoHZKP7YwoS8pNFsjoSL8uUtGEo2ZBZTzrGxVIfqx4/x2Bnj4uxQbK/aI1u0DQXty84iKRPxuQmYgAmYwNIEFhNJer119dr16qwSG9qysW3c3JYGzxFJY1bPJg1Cildw0dXCY5p43DeTFNPpGDEgoYAAqm1qK3FDGtKTD1GBWPr4xo311hpRtPSVp/qX9iXq8BE6tI9jiTkJKNojYZTjhmy0SBoi5HgTMAETMIHWBBYXSbx6q7nbPzvtXn7opY7ZpE3dkEjig+6Ty08WN7Kd8rE3ds4RSVEcaEdzyiI8zroggKLokCDKAirmiRvmbspxbH5tJCo7JAJrIkmiSOnlS0AN1WuRNETI8SZgAiZgAq0JLCaSxrxu4zskvkfiu6RNXZ9IQgRdfOykI03J9eUtpW8lkhAU7124sJp9oZ4ohJg9QiyVRJLiSrZtI0yCR8IvijqOEUwSQdiPI08Uh1PttEiaSszpTcAETMAENiWwiEjqmz2SwZpF+un3HhQuc1631b43IpyPtWsCCXtafpOk9kUfMSFBEcVCadZlaCaJckmj8mI9Q8fiisjbxEkkaRYIWzSTJKFXKp90Ek2l+L4wi6Q+Oo4zARMwARNYgkBzkTRmCQAagjjiVRtiKTsN5t9/9Qc5qve89Os2wvR9lHz92o3CEFFPP/tc8TVcrbJWM0mUj2hg1kUfaI8RSXm2hpklhMuQQ2hcunSy+uN4E4cY0mzRzeefX303hV3ZNtJIGElcKZ+E1Rg7LJLGUHIaEzABEzCBlgSai6SWxk0ta47gKQmroXqniqSh8rYZj+2bziT12ctsUZzlirNlffmG4iyShgg53gRMwARMoDWBgxJJwJnyEfbUb5EEH5FRW0xSafbNZxFGFmNcUiDRZkQRs2KaLdr0o3LNfnkxyX27omyPCZiACRw+gYMTSYffZW6hCZiACZiACZjANghYJG2DsuswARMwARMwARM4dwQsks5dl9lgEzABEzABEzCBbRCwSNoGZddhAiZgAiZgAiZw7ghYJJ27LrPBJmACJmACJmAC2yBwcCJpG79u20bHuA4TMAETMAETMIHdEmguksYuJsl+bS986uvrvxb7t5XWSWIzWza11UKSeeXtuesk1ZYAYI2g0uKOef2gTbudBRq14nUuq2ZDTjfmXAtAxrWPxuRTmj47laa1z4KWu966pXWbXN5yBLQAar6f3nnnR+ulPpZeOmO51rlkEzCBTQg0F0mIEbYlOT29XbVLW5JIGLH6dos93EqCB1GkFbY5ZosSxJRcSVgprubzwOQBWnI1gXLIIqnWNtZMYr+2MauBI6bmCrFaP+RBr5TOYXUC9NvY/fZgXfrPQb30/YmpiSRZyL1ukSQa9k3guAgsIpIQSn0b3Eokad82/Ncffa27c3ZnRX/OtiSIHWaMogDKXVlL03LvNgYLbcNB/XlxRRZZjAssxnht06HZG5WjhzgigvK1UKN85VN7sw0Kn+v3zQYRVxsccz7sv3XlynqxSbUPu9TmVkKpJtD6bJjL5xDzxWtO7RtiR3y+FugHXSNcr/Fazdcy5zjKQZxxn+BTZsxHebr2SRud7ieVFeNqx0Ni0CKpRs7hJnD4BBYTSXq9dfXa9eKsEsJIr9vyHm5zRNKY1bNJg5DiFVx0tfCYJh73zSTFdPGYh3l+oDMQMQDg43iwa5CJD+5S3ixAYl3bOsYG/kout400tEODnURRHsz6yizV0xdWYhRtwMY/+/znV0K2r5xji4ML/ZT7JrKr9R951Mdwy6KFPqGc7OL1onooC6H08Y0b6xkt4pS/ZEOuL9cz59wiaQ415zGBwyCwuEji1VvJvf2NH65FEmKJ803ckEjig+6Ty08WN7Kd8rE3NrYSSQwC+h+xfIkk6tEDP4aJUUkAKG5pX4OTBqtSfXEwU3wOy+dKR9tKbVb8WB9+bL4bXayTdox9nRTLOORjmL134UJROEZ2MMjn4iJxQ1n8wRjWOQ9xiCBd+xJXKld5EVCU8clPfrK6LpRePvUt6SySlqTrsk1gvwksJpL6XrfxLVKcPWJWKZ7PQdYnkhBBFx876UhTcn15S+lbiiQEQc1pkCCNBhml3aVIijaU7I+zAkqLr8FPYeQlLDrCSmXGNGOPSyIo2lCKH1v2Iafrm0mK/VXqPwSLxA6MdA3r+hV/zhHCKi9eM0qjvFEk7ULUWiQd8tXutplAP4FFRFJt9kim6JdttQ+357xuq31vRDgfa9cEEja1/CZJbcw+D/48+PPwr73uiXGlvKUBKteZz8W15Ueo2JFnfRgoc1uxRYMfx7F9nOdBM9s+9zzbEm2wSKpTpX8QO/CSi+xy/5GG+HwtSOjURJJmgcgrcaV6lJe6JI6IK11bspE8zE6pXIVv4lskbULPeU3gfBNoLpLGLgGQX7dJMIFTg/n3X/3BJLqlX7cRpu+j5OvXbhSOiHr62eeKr+Fqlc+ZSdKgwysCHuI8zHE8zPXaAJ9BIAsGncfBQYMBeTS41OxV+NnZWXfp0snqj+NWToMa5fUJD9LFtsaBjLYR39ple8ba2tqO81heiV2t/+jLLJBos4QOZeEi/3jt81qU/NwnSqO8USRRDulkR772dV/Ea2tT9hZJmxJ0fhM4vwSai6RdopgjeErCaqgNc0TSUJnbisf2ljNJ2W4GpyjmYrwGvxi2jWPqrdm0jfoPpY5d9d+u+Vkk7boHXL8J7I7AQYkkME75CHvqt0jqJkRGbTFJpdk3//33P+g+/ZnPLiqQhtp8rIPsEJfzEn9s/Yc40n2+5H8szkv/204TOEYCByeSjrET3WYTMAETMAETMIH2BCyS2jN1iSZgAiZgAiZgAgdAwCLpADrRTTABEzABEzABE2hPwCKpPVOXaAImYAImYAImcAAELJIOoBPdBBMwARMwARMwgfYEDk4kbePXbe27wSWagAmYgAmYgAnsG4HmImnsYpJxg9tXHr7and2+u9jcJoBK6ySxmS2b2mohybzy9tx1kvTTYH4mHB0/ky4tqhfTLH3c0gYt3keZSzvWWHpgccBfLYAJb5YwYCkDOxMwARMwARPYBoHmIgkxwrYkp6e3q/bHvdvunN3pXn/0tY03uKWykuBBFGmFbY7ZogQxJVcSVoqr+ayZksWR0rYUKCpzqt/Shl2LJLWdFcKfeeZZiyQBsW8CJmACJrA4gUVEEkKpb4NbZpHi7FE+n7MtCWKHGaMogDK9WpqWe7eVVpxGtNy6cmW943lc/ZnjvMUC2zAwG8UfW5iQlzSazZFwUb68BUPJhsxiyjk25jriNivRNsolrWzTrJpsVtuVX20in7ahIG12FkmZiM9NwARMwASWJrCYSNLrravXrj8wq4Qoevmhl7rbPztdtY993KJomiOSxqyeTRqEFK/goquFxzTxuG8mKabTMUJAr5EQB7VNbSVuooBAVCA0Pr5xY721RhQtfeWp/iV82hQFjurIQoc0EkaIn7hRaSm/ysm+RVIm4nMTMAETMIGlCSwuknj1lp1esb3wqa93/L36P37vPpGU0485HxJJfNB9cvnJ4ka2Uz72xpY5IkmCIAoFyiJcsy74CAqED8IIX4IoC6iYJ26YO4ZVizSaLZIAUpm5PWqT4rUBqWaYFD7kWyQNEXK8CZiACZhAawKLiaS+1225Ecwk8V0S4mmu6xNJiKCLj510pCm5vryl9K1EEoLhvQsXVq+ZqCcKoT6RpLiSbdsOy2IJkSRBWLJFM02Iq9JrtVIewiySamQcbgImYAImsBSBRURSafao1gBeufHqjY+55ea8bqt9b0Q4H2vXBBJ1tvwmSW2IfhQOcSYJwcCrN2aMCEf8DM0kUS5p+oRIrDseiysir6WT8KENsU25jvhqEPvzLFROH88tkiINH5uACZiACWyDQHORNGYJAAkjvW6LAolGazD//qs/mMSg9Os2wvR9lHz92o3CEVFPP/tc8TVcrfJWM0mUj1DglZQ+0B4jkhAbfOOkV25jX10hNC5dOln9cbyJk92ygRklOQSQwvGJkwiUuNP5WKFkkSS69k3ABEzABLZFoLlI2pbhpXrmCJ6SsCqVHcOmiqSYd9fH2N56JmkbbbJI2gZl12ECJmACJhAJHJRIomFTPsKe+i2SwCEyaotJKs2++SzCyGKM500gafbLi0nu2xVle0zABEzg8AkcnEg6/C5zC03ABEzABEzABLZBwCJpG5RdhwmYgAmYgAmYwLkjYJF07rrMBpuACZiACZiACWyDgEXSNii7DhMwARMwARMwgXNHwCLp3HWZDTYBEzABEzABE9gGgaMSSWMXjWRvt29/57uT1k7aRme5DhMwARMwARMwge0RaC6Sxiwmqeax0S0LSsbFJPO+bmxZ0sLxc/+8uS1hWmAyx7GUAItMsvbSWKef2fNzdRZtjAs2avFELaaoMlkYsuU2I3H1a9Uhv2aD4qf6WtQyLiQ5tozW7Y71Lll2rMfH9wjEBUTHXg/kyffDvRJ9tBQBmOcFaLWAL8+uR7745dWCvkvV73JN4DwRaC6SEB1sS3J6eruXA+KntOJ23MdNK3NHEdVbaCWytMgks0UsJEkcx4ikuBI3RXFOmrEOkfTMM8/eJ46UtyZQWg/o+ySS+to2doDs2+ZEbEs+5Y8drEv5HdatVkn/8699bb234BgmrKAeueu6j2Eqh+uD9KSx2x6BkkhS7Ygl/oOHb2cCJtB1i4gkhFLfBreIn7eeeKO79e7N+/ZtO7v9SffKw1c7ZphwiCOEVJxN0mzNO+/8aHT/jVk0svQqDgGFeBo7m9QnklbtSQNI3tqDLTziNh0xngcbjoGFLUl0johgS5OP33xz9b/DuB0Ix0onWJRZGrAUP8VncKsNorKrVFcWTxosKQubaQ/55SiDNpNurCM/5eUBGB63rlxZ1ZF5jy37GNLl64w2S/DoGsvXFmlK15fKKl0LtfSE166HY+C/ZBvpB/iWnEVSiYrDjpnAYiJJr7GuXrtenVXKM0XxHIH0+qOvrcQUPq/hcHNEErNBCKWa00xSTlMLr5UzJJJK+RhASq/bGIA0CGlw0iAT8+RBpiYOSnUvFYYN7124cJ/QiXXlh7QGUbWX+Pw6YKjMWL6OMxvCqUOCi3rZYJiy7e4RUH/oelMMPNVH+ZqMaXI+4pRe+ZW+dL2qfqXFrw3qKsd+GwIWSW04upTDIbC4SOLVW81FUUQanf/JP36ne/Vv/4uOmaX4+q1WzlD4kEgivvZabShvrLuVSNKAov+xy4+DD8elmZDSoBNtXPoYuyRCSnXRtjz7xKAYhWI+Vzm0jVmmyEFxJZ/0N59//r4oBlwNviVb7kt8hCcwKwncEqvIUqhKwlRxuq6z4KGPqFcu9z/9nfMorf22BCyS2vJ0aeefwGIiqe91m7BJFOmbI71u45Ubx/qIO75uU94pfp/QIS5/tK2ymUma8iu3liIpCwnZJJ+BgzRZBDDYEM6AtCtXG2ixpzTg5UGR/MzwEC7XV6bSZH9oYC/F5zKO8RzuCN0oRkuspogk8iOEJVAj13xN5Oshx8e8Pm5LwCKpLU+Xdv4JLCKS+maPIrIskoiLM0el+Dmv22rfJPEdUk0gYUvrb5Ji23XMgFB65cNgUvvfcxQRpIkDT4xTHWP877/6g9UGuPBt4bCjNOuDvXHwpa48KOa2k75vdqrP3jzAUrZ4lQb+vrKOKU5CSaxoe7zWFJ/7sta/WXRFlrkf8vWQ+zDm9XFbAhZJbXm6tPNPoLlIGrMEgGaM9Os2/Dx7pDh9xC3Uc0QSYoef8/OzfjmOLz52sl4CgG+oHr/81H0fabf8dZvqLfkMRHqlxiCD0/+8FS6RkAcnnefBTPlieKluhfEhPD//nfJBvPLW/DzYIZxKs1xqg2yO3yPNFX2yKQ/A8BCTHKc89u8SyHxyP4kjqblu1X/4+vhe13EWU5lxFEL5uolxOZ/P2xKwSGrL06WdfwLNRdK+ImE2qW/WKNs9d52k2hIAufx9O0d8fuGRL60+jF/KttIsA3XlQbF1/QzmEp+ty3Z5bQhwDZRmVNuU7lLGErBIGkvK6Y6FwNGIJDq09DP/UkdP/RZJZWiWq7SYpNLso//Ct15s+qptahuXFklT7XF6Ezg2AogjFpH0YpLH1vNu7xCBoxJJQzAcbwImYAImYAImYAIiYJEkEvZNwARMwARMwARMIBCwSAowfGgCJmACJmACJmACImCRJBL2TcAETMAETMAETCAQsEgKMHxoAiZgAiZgAiZgAiJwVCJp6V+3Car9OgGtmxPX2KmnPt6YKT/FnpL2eIm65SZgAiYwnUBzkTRmMUmZyUKRLBqpbUkUrsUm48a2ipvr53WStHmtNuLNayjNXSfp05/57OpntJcunXRnZ2drc2vigJ+/s4YP8XkdoVqedaETD0rlzf35fbZVptQWjFR8yQbFzfGxv28156lltl55fGr9pOe64fqJC3tqsU9+ol1a9JP4fM1RFu1RHo7tTMAETMAExhNoLpIQHWxLcnp6u9cKth/RqtpRJGkrEuJaiaTSitvZOPZwY6YpupYrbtfEgUQSft6vrZYn2jjluFTetkXSFHvHpG0pkhAnrBl148YfrsTFmPqXSIOYwY6aYz2ur371NztmkKIjT00IEV6Li2X42ARMwARM4B6BRUQSQqlvg1uE0FtPvNHdevdm9/JDL903k4R4QjTFPdzumdutVoRmtib+LzvGl45re7cprWaVSBdd673b8uwLr5ziVg46jls45DzRvjnHuTyJJDbKjdtJULZEleyKr8gouQiqTgAAIABJREFU59aVK6vtJ4hXnGaSEHyEazsVyqNdpbKIIx9bWeQ82QbqjY74LC5j/JRjxMfv/f7Lq2ssrpzOtcY5MzV5sT2EB3m0EJ9mczQbpFkchSNsEDjUJRfFDfmoK8YrnfzarBF5ot1Kj2+RFGn42ARMwATGEVhMJOk11tVr16uzSpo1ijNJMrulSGKWKAsg6kEEsV8btpImu5p4yul03jdIKU32EQcIFIkV/G06zcRIfCB2dIwv8SOxIgFHnPZYowxtKSGxo3SxPLWLMJVLWG47eVU2x7JH+ZfyERIIkCxUCEOYS7hEwcExAkmzOgge0meX83COy98T9V1D5EF0RVtiPSUBpvhYv8Lsm4AJmIAJ9BNYXCTx6q3m5oikWll94TWRFPOQpiSUxuRVOX0DnNJkHxGAYEAoIAYQI9t0JYEiO/IMTRQ3pJEQwl6dayZJ7cjnpI3lcE45mmGSL5Ek0aXzpdhkYRRFBaKn9vorpsu2kUczSfikxcXrhLIVnuNyeTonf2mfvdwGpcfvszOm87EJmIAJmMA9AouJpL7Xbap+n0RS/rAbG6fu4RYHP7Wx5mtmRqJAfnw9VcvbMryFSKItElRZFJVmgkoiCZHV55YWS/SdPrqXsNErsjkiiTxxhimLFL3W+4M/uL6ehaL9Y64hxBC2UUd0eVYqxuX6Y5yPTcAETMAEygQWEUl9s0fRjDkiSYNZHiBiufl46Jsk0jNjlD/cbv1NUraLcwQDQqIkJkrpFSYOcRZCcVP8mkiiDIQL9uFIF39Fppkj4hAwvG4jTRZJsYxVQYWZJPLpdZ3SlPxsaylNDGMmJwqVGJePs4iIgmOuSJLIoizsiH1FmQglRFJ0fbNBSkfflz7c7hNYuX0qy74JmIAJmECdQHORNGYJAP3EX79uw3/l4asd4VoWIMYRJidxMEUklX7dFr9H4pukLJCor+Wv22R/9iU2EEkSJDlN6VwDb+01UClPKSwLjyjWiEMYaZYr2ofdCueDa8QRTjM+iiOdHPkVLp/6cPgKw1ddOY/CVWafjzCofb8T89VmZmDLdTZHJKlMZqUQSAiiKJLUf6XrmHS5XwnTDFdN+JEn1hHbSHgtLqbzsQmYgAmYwD0CzUXSvaL366j0Oq3PwrnrJNV+XdRX15w4DcIe+Or0ECA1QVHPtZ2Yvlkf9W1JQNWsI61mrkppLJJKVBxmAiZgAv0EjkYkgYGZodKMUUY09Vsk5dcsF//j7xuwlH6uz4BIHRZIZYISGfsokHSNDNkWX/eVW3kvtC8t14hmoHy93GPmIxMwARMYQ+CoRNIYIE5jAiZgAiZgAiZgAhCwSPJ1YAImYAImYAImYAIFAhZJBSgOMgETMAETMAETMAGLJF8DJmACJmACJmACJlAgYJFUgOIgEzABEzABEzABEzgqkbT0r9t8OZnAoRPQSvFT1qs6dCZunwmYwOESaC6SxiwmKZxaODJucKtVuLWYZIxTvjl+aZ0kwrQR7+9883dX25Co7LnrJGlri7wEQG1wyYs5qv65fl7xOpZTsyGmmXKsxSa1ICR5W7dnij1OuzkBXSMs6FnaIkfxU0US6fP+e1pQkyUKhpZE2LxlLsEETMAEphNoLpIQHWxLcnp6u9eat7/xw64khAjXCtv4Wom7t7CByNKK26yFxFYkxHGMSMprKHFe2vS2Vl3fAoG1waW1qNi1SIINA2IUTjVeDt8PAvRXFj1Tr0v6O4ug2LqSSFJ83zpPSmPfBEzABHZBYBGRhFDq2+CW2aK3nniju/Xuze7lh17qarNFhBNPejktxjdlNeIxe7eVXsUhoBBP+GNcn0giv7YgUVlxaw9tyRG38YjxGsQ0e6NzbQPy8ZtvrgYplSNf6WKdrQQMwk8b26p8/JpQw5ZbV650bGOCfbGtMb+Pt0eAPiiJm5JI4rqpXVdYTP+WyiKOvLX+tkjaXn+7JhMwgWkEFhNJeo119dr16qySXq3VRBKzSnkmaY5IYjYIoVRzmknKaWrhtXKGRFIpX2kwIh0DjgSOZqEkbmIeBh6Fk68mUEp1LxmW7VKb9AqHNozZ1HZJG4+9bPqoJlziNZY5xWszx3Etqo9zXO3cIqlGxuEmYAK7JrC4SOLVW831iSSEE6/jagKqVmYpfEgkEV97rTaUN9bXSiRJFOl/7fKjGOK4NBuzLyIJO24+/3zE84DwK81C3ZfBJ4sQ0PUlEV6qZK5Ioiyuzbjpcan8GGaRFGn42ARMYJ8ILCaS+l63CUBNJLUUSNTVJ3SIyx9tyz5mkr79ne92fMQ9xrUUSUMCgoGINFmI7ItIKr2KizMQpfgxjJ2mHQHPJLVj6ZJMwAQOk8AiIqlv9ihiLIkkhenj7Zie4zmv22rfJPEdUk0gUVfrb5JyWzivvXZCUNRehSCEeFVFXtLEGYEYV6qvFsbmp/wyD76tHEIutsEiqRXZduXQP6XviObMJNG/pbKGrPVM0hAhx5uACeyKQHORNGYJgLPbn6y+NdKv2/D59ug//L9/1b3+6GvrX70pPgqmOSIJsfP0s8/dNyPE7NDFx07WSwDwDdXjl5+67yPtlr9u6+tgBhe9UpOo0CsRhes7DwYvjhEgOJ1HoUQZyhfD+2zgQ3h+ij3lg/i+8ojLs0XYInty3FBZjl+OQOwXXU+6fvAlfEgXwznWdYivdFMttUiaSszpTcAEtkWguUjaluFT62E2qW/WKJc3d52kZ555tjs7O8vF7f054vMLj3yp6UwSjWZglfDbewg2cCcELJJ2gt2VmoAJjCBwNCIJFqWf+ZcYTf0WSWVolosZmbyYpNLso//Ct15s/qptH9tpm/aLAOKIRSS9mOR+9YutMQETuEfgqETSvWb7yARMwARMwARMwAT6CVgk9fNxrAmYgAmYgAmYwJESsEg60o53s03ABEzABEzABPoJWCT183GsCZiACZiACZjAkRKwSDrSjnezTcAETMAETMAE+gkclUha+tdt/agdawImYAImYAImcJ4INBdJYxaTFCAWicz7symstJCk8s3xS+skEaaNePMaSnPXSWLV6tISAFocUospzmnDpnla26CFB7Wg4Bj7ajZoMUvYsSSBnQmYgAmYgAnsmkBzkYToYFuS09PbvW17+xs/XK+sXdvEFsH08kMvdWxVsokrrbjNWkjs20Ycx4gkZpqia7nidk0cxPqWPm5tQ0uRpLYjliySRMO+CZiACZjALgksIpIQSn0b3CJ63nrije7WuzdXIqhPJLFdCduYyGnBxinbZ9T2blOZ+KVXca33bmPl6TjrgsggjI1q2eIh7pzOHmycaxsIzUARzvYP7N3G9iRscJu3h1Ce0jYR2YbIYOoxomtoI95SmX02WCSViDnMBEzABExgFwQWE0l6jXX12vXqrJI2s40i6c7Znfv2b4txAJojkpgxQijVnGaScppaeK0cbJuyLYlmYiSAalt4RDEi8fTxjRsrsYTgIB9/xCFaSI+rlVezfx/CLZL2oRdsgwmYgAmYAAQWF0m8equ5kkiKaRFI+ZulGD/2eEgkEc9fyQ3ljXnmiCRmexBLOGaZED04CSjNCmmWSUKIeM3iSCThK718lbcq9Bz8Y5F0DjrJJpqACZjAkRBYTCT1vW4T2yGRxGs2XrfxbdImrk/oEJc/2lZdzCR9+zvf7fiIe4xrKZIQNxI4eSYJcVQTSQil8+wsks5z79l2EzABEzgsAouIpL7Zo4hvSCTpl27xlduc1221b5L4DqkmkLCz9TdJse0cI3RqM0kIJAkeZpjGzCQxy8S3SpQ71X3/1R803eQW+/lmaqotFklTe87pTcAETMAEliLQXCSNWQJAM0T6mT++PtCOv3orvWqbI5JKv25jdujiYyfrJQD4hurxy0+thJFgt/x1m8qMfp9I0rdHvDZj5kiv1vpet1F2fuUWPxSPdedjxAk/v8dv4SySWlB0GSZgAiZgArsk0Fwk7bIxfXUzm9Q3a5Tzzl0nacqH27nOXZ4jPr/wyJdWH8bv0g7PJO2Svus2ARMwAROIBI5GJNHo0s/8IwwdT/0WSfk0y1VaTFJp9tFnXSIWwcT+XTnNZHkxyV31gOs1ARMwARPIBI5KJOXG+9wETMAETMAETMAEagQskmpkHG4CJmACJmACJnDUBCySjrr73XgTMAETMAETMIEaAYukGhmHm4AJmIAJmIAJHDUBi6Sj7n433gRMwARMwARMoEbgqETS0r9uq0F2+GYEWHGcRTe1uOZmpTm3CZiACZiACYwj0FwkjVlMUqaVVtTOcSwu2cKV1kkiTBvx5jWU5q6TxE/pS0sA1Ab6vKDkpm3VYpPa5DaWV7MhpplyjO2sqj12wcpYdmy37GLhzNIq3YofK5Ji2bFOHy9LoHY9sJo79wR/HNuZgAmYwHkh0FwkITrYluT09HYvg7iydtx2hExsV3L9c1dXfy1EUmnFbdZCYt824jhGJDHTFF3LFbdrA33rAX2fRFJf2xA8WfT0pY/9omPEGTNMsM2OsueIt1yOz8cTqIkklYBAskgSDfsmYALngcAiIgmh1LfBLSLorSfe6G69e7N7+aGXuiiS7pzd6V5/9LUOcaS/CFILNk7ZPqO2d1sst/QqrvXebWzVEQduzpk9iX+EycV4CQoNRDrX9iUfv/nmSjDEsjhWulhmtEHhc3zEibZLyfllV6mumhgqhZNfbcptoU7CSkKpJhZJf+vKldVeeJQbeec2+Hwagb7rgZIskqbxdGoTMIHdE1hMJOk11tVr16uzSqUNbhFMcR+3PJM0RyQxY4RQqjnNJOU0tfBaOdg2dVuSkjCgfAZziQLNQklwxDwM8gonX00c1GxeIhwb3rtwYWVLqXzsLYmT2K6cL/LIcZRXek2X2ZCPcpSW+tgQGHvtlidgkbQ8Y9dgAibQlsDiIolXbzWXRZI2vuVbJVxpJqlWVl/4kEginr+SG8ob87QSSRJFmkGRH8UQx6WZkF2LpJpgEae+2Ya5IomyqffdX//1+wQPLG4+/7yqXvlRbPXZcl8mnzQhYJHUBKMLMQET2CKBxURS3+s2tS+LJGaRXvjU1x/44/Ubr+Hmuj6hQ1z+aFv1MJP07e98t+Mj7jGupUiqvcaSHYgC0mQRsGuRhH3YUJtJwu7SLBL55oqkmjAriSCLJF1B2/ctkrbP3DWagAlsRmARkdQ3exTNzSIpxnFcmkma87qt9k0S3yHVBBL1t/4mKbeP89orHwbzmphAhPCaiLykIa1cjFPYGJ8BrOUmt9jBzA4CJrrSKzDFzxFJtL30TZLKzKLMIklktu9bJG2fuWs0ARPYjEBzkTRmCQC9VouzRvoOKTanlUgq/bqN2aGLj52slwDgG6rHLz+1EkayoeWv21RmyWfg1is1CaP8yi1+R8OxxAfCgvMolChD5cXwUt0K40N4fqI95YN45a35WfQgnJj9om3RqQ2yGV/CJ7JRvNqOr3SxvHicZ5MoT0xyXMzn4/YELJLaM3WJJmACyxJoLpKWNXd+6cwm9c0a5ZLnrpM09cPtXO+uzpmh+8IjX+rwl3J9s0hL1Um5iCKJzyXrcdn9BCyS+vk41gRMYP8IHI1IAn3pZ/6lLpn6LZLK0KvA0mKSSrOP/gvferHpq7Z9bKNt2h0BxJEXk9wdf9dsAiYwn8BRiaT5mJzTBEzABEzABEzg2AhYJB1bj7u9JmACJmACJmACowhYJI3C5EQmYAImYAImYALHRsAi6dh63O01ARMwARMwARMYRcAiaRQmJzIBEzABEzABEzg2Akclkpb+dduxXTxz2qv1n7RW0ZwynMcETMAETMAEtkGguUgas5ikGsYebSwoyXYkcgrTQpOlRSaVdopfWieJMG3Em9dQmrtOEqtWl5YAGCMO4kKHtG1MnikMSuXlBR/Hlldb86i2YKTKLdmguDm+FqLUApMqwz87Fwn7JmACJmACcwk0F0mIDrYlOT293WsTq2lLCGWRtOlebbni0orbrIXEvm3EcYxIYqYpupYrbg+Jg5JYGcoTbR1zXCqvVO+YsuaKpDFlT0lTE0kqwwsYioR9EzABEzCBqQQWEUkIpb4Nbtmz7a0n3uhuvXuze/mhlx6YSeoTSVqwccr2GbW92yKs0qu41nu31YQFduRZJNnWl0dppvi5PIkkNspl2w/2W2M2CCdRpe1A4isyyrl15coqPfGK00wS248Qru1UKI/ZnlJZxJGPunOebAP1Rkd832bAFkmRlo9NwARMwASmEFhMJOk11tVr16uzSqUNbvPrNs6jmyOSmDFCKNWcZpJymlp4rRxsm7MtydBAX6uvRbhmYiQ+EDs6xpf4kVjRay3itG8aZbDhLkJHYkfpYnmylzCVS5iEGj6OvCqbY9mj/FN8i6QptJzWBEzABEwgElhcJPHqreZKIimm5TVc/mYpxo89HhJJxPNXckN5Y565ImlTIRBtmHpcEiiIkpJwi+KGNBJC1KlzzSSRH5fPCYvlcE45mmGSL5Ek0aXzVaET/rFImgDLSU3ABEzABO4jsJhI6nvdJguGRNJQvMoZ8vuEDnH5o22Vx0zSt7/z3Y6PuMe4OSKpJEbG1NUqTQuRFNuQRVFJAJZE0tBs0VyxZJHU6kpxOSZgAiZwfAQWEUl9s0cR8ZAI4lUb3yyRTm7O67baN0l8h1QTSNTX+psktSH6WVTEuL5jcUAEbOJqIokyES56LUY6vi/S7JFmjkhHG3jdRprcnliG7MwiiXx6Xac0JT/bWkqTwyySMhGfm4AJmIAJjCXQXCSNWQLg7PYnHT/t16/b8PVT//hNUhZINEriYMqH26VftzE7dPGxk/USAHxD9fjlp1bCSPBa/rpNZWY/io0c13f+4UcfdY988cvdC996sS/ZYFwWHnHmhziEkV6BSTBRKHYrPH7srRkfxZFOjvwKly/Rha8wfNWV8yhcZQ75FklDhBxvAiZgAiZQI9BcJNUq2nU4s0l9s0bZvrnrJE35cDvPumQb+s7Pzs66S5dOuk1nkvrqOIQ4i6RD6EW3wQRMwAR2Q+BoRBJ4Sz/zL2Gf+i2SytAsV2kxSaVp4TOLRh0WSHWasIGROdUZOcYETMAETKCfwFGJpH4UjjUBEzABEzABEzCBewQsku6x8JEJmIAJmIAJmIAJrAlYJK1R+MAETMAETMAETMAE7hGwSLrHwkcmYAImYAImYAImsCZgkbRG4QMTMAETMAETMAETuEfgqETS0r9uu4fVRyZgAibwIAHW+VptsfPLXz4Y6ZDmBFh/LW6y3bwCF3jwBJqLpDGLSYqqFo5kj7botBJ3XGQyxs85Lq2TRJg24s1rKM1dJ+nTn/ns6mfnrGHEWkZybN3BwzEvhpgXc1T6uX7f2ks1G+bWpcUmtSAk5bRuz1zbDjnfWMbqHxbnHLv3Xdxi5pAZtmpbX1+U4lqJJO65uFBrq/ach3JgqOdoXIRWYbENU0VSLDuWs0/HpTZp3TyWPGEMYjkauzYEmoskRAfbkpye3u618O1v/HC94nYUSa02tY2Vl1bcZi0k9m0jjmNEEjNN0bVccbsmUEoP0mjD1ONdiyTs5UHDjWw3n0CfWJn6IC9dE/RPTTgRVxpw5rfmfOec2xct7m2EUKkvsIk46jhEV7vGa0xr6Uts9CwuPaMoH66k2VeH3bXZMcQSCxpbJLXrvUVEEkKpb4NbZoreeuKN7ta7N1d7s0WRhHjir+a0YOOUbUlqe7fFOkqv4lrv3cbNF29MzuNWHBwTJhfj9aDkJuYG0TkDINuCfPzmm6tBL5endLHMaIPC5/i1waM0KFM+tty6cmVlb27rnPoPNU/u49jO0iCh9Or73L99/VESSqU6jrX/xDbfR/AocdIArL7QYKZyCF8x/9XrNvpG+x6qn+NzQuWV6icsh1MP+f/8a19bPVvilkEqf9997C9dl9hdanMpXNzgrT6I7VZ/5HuFNJG/8uwT19r9jK0WSeqxdv5iIkmvsa5eu16dVdJrNYmkO2d3utcffW31p73dOCdcbo5IYsYIoVRzmknKaWrhtXKwbcq2JJTDzccDAT+6+DDQDa8bOubJN3TfDRTLX/o420V9tEkPLNowZlPbpe3ct/LhAiP1dbaPcNjKla6NzLXvmqA89YnKxI/Xn8KPrf+m9gWc6Bs44eJ9KobrvgjfJMV7pZRH5cZ+r5Uvm2UDfs4nW/bRx9aavVzriD8YZkc71eYYV+NJGt07OV+pj84LV4uk2PttjhcXSbx6q7kskrTxrTa7VTzfLm3ihkQS8fyV3FDemKeVSNLNq/+Nyo8DJ8eE5wfK+gbf8XQxdtx8/vmI576Bt++Bd1+mIzqB2XsXLhQHATCUmJUGAa6JeK0MXROkzTMOlEs51CkXB6KSLUp3CP6ovvh7f+++vsp9kc/hsu6LIJLgr/s4HmeOpImzUMTTJ7Gvc5195eXyd3nO9UTbsmCJNvW1JV6bMU/mEeM4Vr3ir3ieXfSVXC6nzxbl2YVvkdSe+mIiqe91m5ohEZRnkvS6TTNLOle+qX6f0CEuf7St8plJ+vZ3vtvxEfcY11Ik1f7HJDu4SUmThcj6IRwGN+XZpl8aROODrBS/Tfv2tS4exrWZpNKDOT+8aRcPfNLK9V0TpCvNJJXKObb+27QvSn2z7osgkrgX6DPS58FZfUh8HsiJW5f3q/s911m6ZlTmPvq1dg49L+K1GduVecQ4yqwJs8wtl5PjY7m7PLZIak9/EZHUN3sUm5BFEnEIIr1iK8XPed1W+yaJ75BqAglbWn+TFNuuY26+/HqEOG760kOROB6M+o6BNKSVi3EKG+OzIWzrX0XkB0l8kA099MbYfKhpuCYQLrFfaSt9DdPo9KBXOP2fZ6PyQKr8lL+amagI6pzvGPtvk76gv7IAXTMNIon+gO2Hr7666mP6VE79m68FxePH6+K8DObR/nxMe/J1ueYW2MR88dqM4ZmH4tSvum8ULn/1fAozhbmc/GxTvl37Fknte6C5SBqzBIBeq/ETf/3pFZtmjxSeX7XNEUmlX7cxO3TxsZP1EgB8Q/X45adWwkiYW/66TWWWfG5wvVLjAYHTw1Hhetjmm1vn8SFKGcoXw0t1K4wP4fn56JQP4pW35q8eNOEbgvggy3G1Mo41PPPpGySI43WZ+lwP/hxOvK4v0uSBqMSa9CrvWPuv2hdJ6MAPVuoHRA+MuUf7+oJ8is/3K/xzWO4n8jKrjJ3nZTDPbcjn8VojLl6HMS3pxFs+faDnosLwdb3DiWNd17G8eEy87pfzwtUiKfZgm+PmIqmNWe1LYTapb9Yo1zh3naSpH27nend1jvj8wiNfav7TUR5ietDsqm2HUG9tkFi6bQwUGlyWruu8lL+rvqjxGTvo1/Lve3gUgdu0FWFUmuXfpg1T67JImkpsOP3RiCRQlH7mX0I09VsklaFZLmZk8mKSSrOP/gvferH5q7Z9bKdtMgETMIFDJIA4YszxYpLte/eoRFJ7fC7RBEzABEzABEzgUAlYJB1qz7pdJmACJmACJmACGxGwSNoInzObgAmYgAmYgAkcKgGLpEPtWbfLBEzABEzABExgIwIWSRvhc2YTMAETMAETMIFDJXBUImnpX7cd6kXidpmACZiACZjAMRJoLpLGLCYp0CwUyaKReVsSLSQpPy8oqfxT/NI6SYRpI968htLcdZJYtbq0BIDWMulbGC4voDYmzxQGrcvrq5u25PV1/DPVPmKOMwETMAET2DcCzUUSooNtSU5Pb/e2le1HJIIkknIGxNHLD73UsT3JJq604jZrIbFvG3EcI5KYaYqu5YrbQwIlr+iKHUN5oq1jjluX11dnSSQpvRc8Ewn7JmACJmAC+0xgEZGEUOrb4BbR89YTb3S33r25EkElkaTtSfLmtlqwccr2GbW922LHlF7Ftd67rW+l3jyLJNv68ijNFL9UHmFavl/bn1Amqy2z3QEzQsTHOOxlM07C4pL/siUu6a8w+RZJImHfBEzABExgnwksJpL0GuvqtevVWaXSBraChXCKr+IUPkckMWOEUKo5zSTlNLXwWjnYNmdbEmZ4ECMsv79rF8UNx+wJJruikOM4iqaS+Kq1xSKpRsbhJmACJmAC+0RgcZHEq7ea6xNJzCC9/uhrHTNKm7ohkUQ8fyU3lDfmmSuSojCJ5W3rGMGjmSR8BA+uz64omKbaaZE0lZjTm4AJmIAJ7ILAYiKp73WbGloTSQpv8cE2dfUJHeLyR9uyj5mkb3/nux0fcY9xc0TSrmeRmCV678KF9WxRFEbxOLffIikT8bkJmIAJmMChEVhEJPXNHkWAEkP5myRmkV55+Gp3dvuTmHx1POd1W+2bJL5DqgkkKmv9TdIDjem6lTjhVRtiaYoTh++/+oMp2R5Ii0hip2s+HNeH3Z5JegCTA0zABEzABI6QQHORNGYJAMQPIki/bsOXKFJc/mBbfSNxMOXD7dKv25gduvjYyXoJAL6hevzyUythpLpa/rpNZWZ/yrc8Me+HH33UPfLFL3cvfOvFGDzrGBt4zcb3R7euXPHrtlkUnckETMAETODQCDQXSfsKiNmkvlmjbPfcdZKmfLjNLM6cWSRs5bueS5dOuk1nknK7t3Hub5K2Qdl1mIAJmIAJbErgaEQSoEo/8y8BnPotksrQLFdpMUmlaeEzi0Yd500gSdhhO4tuwsvOBEzABEzABPaVwFGJpH3tBNtlAiZgAiZgAiawfwQskvavT2yRCZiACZiACZjAHhCwSNqDTrAJJmACJmACJmAC+0fAImn/+sQWmYAJmIAJmIAJ7AEBi6Q96ASbYAImYAImYAImsH8EjkokLf3rtv3rXltkAiZgAiZgAiYwl0BzkTRmMUkZy7YjeRNb9mpjzzYtNNlq/7bSOkmEaSPevIbS3HWS+Gl7aQkArWbNdh7RsdL1+1/5ymrF6xg+97hv7aWaDXPrwnY2uWX7ErnW7VG52/bHbrtCOu17Fzn02du33Utfvm14bajCAAAHB0lEQVTGYWPcwJi6vYTDNnvAdZmACewDgeYiCdHBtiSnp7d728eK2hJCcVuSuLGtVt/edA+30orbrIXEvm3EcYxIYqYpupYrbtcESmtRsWuRBD+Ew1jBEHlv+7gmVub0SV45Xf1d4kAc6alnX11JJMlWLwYqEvZNwAQOncAiIgmh1LfBLXu2vfXEG92td292Lz/0UpdFUt6iJMZrwcYp25LU9m6LnVt6Fdd677Y8kGo7EM1E4BMmF+M1A8XAyv/wdY4oYjuRj998czUjFcviWOlimaWBW/FTfAZ7VgzHhuhqQg1b2PYEe3NbY/5tHGNLnilRvcRFbvG81ubct5SlvirxjmWqXtJTDkzhA6fMVmmX9mt9SL0WSUvTd/kmYAL7QmAxkaTXWFevXa/OKpU2uNXskWaZ8h5uc0QSM0YIpZrTTFJOUwuvlYNtU7YloRwGxtLrtjiI5lmJmCcPzn2DW83uJcKzXdRBmyRMaAMb6+5CBGAHzOGaXUkE5b4oCcNSeylbfUcZ0cU+VDhhUQCTh3L3zVkk7VuP2B4TMIGlCCwuknj1VnMlkaQwiSRmmgjbxA2JJOL5K7mhvDFPK5GkgTXPCsUZCY5LszH7IpKw4+bzz0c8K5EksVASI/clXugE0dEnPOCa4zcRSTRD/VkqN/ZpFk4lWxbCMqlYi6RJuJzYBEzgHBNYTCT1vW4TLwkivU7TR9uaPdKsks6Vb6rfJ3SIyx9tq3xmkr79ne92fMQ9xrUUSaXZimgDAyhpshDZF5FUEkFjxEZs41LH2FGaSSrZjA1j7EYARcEj2yWQKCO73FcWSZmQz03ABExgtwQWEUl9s0exuTWRpF+0SSTFD7fnvG6rfZPEd0g1gYSdrb9Jim3XMQNj6bUTg2qeeVAeBlfykJc0cQCOcUo/xmez3NabzuaZkDFiY4ytLdJgi179qbwsWhQe+4Lj0rdCJZFE/1BHSTyp7JjPIklU7JuACZjAfhBoLpLGLAEg8aNXavj6WFvCSXESTMI1RySVft3G7NDFx07WSwDwDdXjl59aCSPV1fLXbSqz5DPw6tWahJFmIBSuAT0PvDqnDDnKUL4YrviSz4fwLF0w5YP4UjkxLM/MYIvsyXEx37aOs4iLgiXaIMYwZfYuzvJF1sRLQKn/+gQSdURhZpEUqfvYBEzABHZPoLlI2n2TyhYwm9Q3a5RzzV0naeqH27neXZ0jPr/wyJc6/JYOUSTh17Lc1mVFsdK67L7yxoqpvjK2HedvkrZN3PWZgAnsisDRiCQAl37mXwI/9VsklaFZrtJikkqzj/4L33qx+au2fWynbdqMAOLo0qWT1Yxj61ezm1nm3CZgAiawDIGjEknLIHSpJmACJmACJmACh0jAIukQe9VtMgETMAETMAET2JiARdLGCF2ACZiACZiACZjAIRKwSDrEXnWbTMAETMAETMAENiZgkbQxQhdgAiZgAiZgAiZwiAQskg6xV90mEzABEzABEzCBjQnsRCTd+eV/7v73l/7X7s2Tf7v6+/D92xs3pK+A/+edv1zVR71y//H/+4/d27/9P3ct6/7gg7/qPve5P+y+8pX/pfvoo/+kqrq//uu/6f7BP/jj7m/9rf9p9ffHf/yLdZwPTMAETMAETMAE9pPATkSSUCBQEEothYrKjv42RBLCByH03nsfdV/72v92n0h66aX/s3vttT9fmYR4Il0UUdFWH5uACZiACZiACewHgb0UST/7t3+6nmXiGPc3d/6m++k//0n37/7l/7GaAUJcKY74mIc4Zol+8af//zqtZq0kyjSTFPNFsfbhRx91j3zxyx17mk1xzCZFkcQs0m//9rsd4XKIJs8miYZ9EzABEzABE9hPAnsnkpj1QQwhivRajjCJJMQPAgdBUzpWnih4+maSVBdiScd0VUuRxMyRRJFeyel8Py8LW2UCJmACJmACJrBXIklCKM76cBxFkmaPskjiGycE0lSRJDGVRdLcSyPPJFGOhBHfJCGYmFmySJpL2PlMwARMwARMYDsE9lIkSQhFBBJQiosiScJI4irOCFFG30zSNkRSbEfp9VuM97EJmIAJmIAJmMB+ENgrkQQSRJBeo0VEfSIJEZSFUcw7RyS1et0W7eCYD7j5JsnOBEzABEzABExgvwnsRCTpo2nN/ODrdZnEUIxjtkfhY2aSyKt04M8zTZQnG2ozSVNFUnylpp/6Swzxai2H7fdlYetMwARMwARMwAR2IpJaY0cQxZmk0sxR6zpdngmYgAmYgAmYwGETOAiRxGxQnHniWDNEh919bp0JmIAJmIAJmMBSBA5CJC0Fx+WagAmYgAmYgAkcLwGLpOPte7fcBEzABEzABEygh4BFUg8cR5mACZiACZiACRwvAYuk4+17t9wETMAETMAETKCHwH8Dw+GCq4PMAfkAAAAASUVORK5CYII=;" parent="1" vertex="1">
                    <mxGeometry x="50" y="60" width="585" height="336" as="geometry"/>
                </mxCell>
                <mxCell id="1edKkdgHh0n9XkDn8Mb9-2" value="collector = []" style="text;html=1;align=center;verticalAlign=middle;resizable=0;points=[];autosize=1;strokeColor=none;fillColor=none;" parent="1" vertex="1">
                    <mxGeometry x="70" y="450" width="80" height="20" as="geometry"/>
                </mxCell>
                <mxCell id="1edKkdgHh0n9XkDn8Mb9-3" value="nestedTokens = []" style="text;html=1;align=center;verticalAlign=middle;resizable=0;points=[];autosize=1;strokeColor=none;fillColor=none;" parent="1" vertex="1">
                    <mxGeometry x="70" y="420" width="110" height="20" as="geometry"/>
                </mxCell>
                <mxCell id="1edKkdgHh0n9XkDn8Mb9-4" value="tokens" style="text;html=1;align=center;verticalAlign=middle;resizable=0;points=[];autosize=1;strokeColor=none;fillColor=none;" parent="1" vertex="1">
                    <mxGeometry x="35" y="20" width="50" height="20" as="geometry"/>
                </mxCell>
                <mxCell id="1edKkdgHh0n9XkDn8Mb9-5" value="" style="rounded=0;whiteSpace=wrap;html=1;" parent="1" vertex="1">
                    <mxGeometry x="420" y="430" width="250" height="20" as="geometry"/>
                </mxCell>
                <mxCell id="1edKkdgHh0n9XkDn8Mb9-8" value="" style="endArrow=classic;html=1;entryX=0;entryY=0.25;entryDx=0;entryDy=0;exitX=1.029;exitY=0.541;exitDx=0;exitDy=0;exitPerimeter=0;" parent="1" source="1edKkdgHh0n9XkDn8Mb9-3" target="1edKkdgHh0n9XkDn8Mb9-5" edge="1">
                    <mxGeometry width="50" height="50" relative="1" as="geometry">
                        <mxPoint x="180" y="460" as="sourcePoint"/>
                        <mxPoint x="230" y="410" as="targetPoint"/>
                    </mxGeometry>
                </mxCell>
                <mxCell id="1edKkdgHh0n9XkDn8Mb9-9" value="" style="endArrow=classic;html=1;entryX=0;entryY=0.5;entryDx=0;entryDy=0;exitX=1;exitY=1;exitDx=0;exitDy=0;exitPerimeter=0;" parent="1" source="1edKkdgHh0n9XkDn8Mb9-2" target="1edKkdgHh0n9XkDn8Mb9-5" edge="1">
                    <mxGeometry width="50" height="50" relative="1" as="geometry">
                        <mxPoint x="210" y="490" as="sourcePoint"/>
                        <mxPoint x="260" y="440" as="targetPoint"/>
                    </mxGeometry>
                </mxCell>
                <mxCell id="1edKkdgHh0n9XkDn8Mb9-10" value="" style="rounded=0;whiteSpace=wrap;html=1;" parent="1" vertex="1">
                    <mxGeometry x="820" y="480" width="60" height="130" as="geometry"/>
                </mxCell>
                <mxCell id="1edKkdgHh0n9XkDn8Mb9-11" value="sections = []" style="text;html=1;align=center;verticalAlign=middle;resizable=0;points=[];autosize=1;strokeColor=none;fillColor=none;" parent="1" vertex="1">
                    <mxGeometry x="980" y="530" width="80" height="20" as="geometry"/>
                </mxCell>
                <mxCell id="1edKkdgHh0n9XkDn8Mb9-12" value="" style="endArrow=classic;html=1;exitX=-0.03;exitY=0.317;exitDx=0;exitDy=0;exitPerimeter=0;entryX=1.041;entryY=0.391;entryDx=0;entryDy=0;entryPerimeter=0;" parent="1" source="1edKkdgHh0n9XkDn8Mb9-11" target="1edKkdgHh0n9XkDn8Mb9-10" edge="1">
                    <mxGeometry width="50" height="50" relative="1" as="geometry">
                        <mxPoint x="230" y="570" as="sourcePoint"/>
                        <mxPoint x="810" y="590" as="targetPoint"/>
                    </mxGeometry>
                </mxCell>
                <mxCell id="1edKkdgHh0n9XkDn8Mb9-13" value="token = [&quot;text&quot;, &quot;123&quot;]" style="text;html=1;align=center;verticalAlign=middle;resizable=0;points=[];autosize=1;strokeColor=none;fillColor=none;" parent="1" vertex="1">
                    <mxGeometry x="35" y="650" width="130" height="20" as="geometry"/>
                </mxCell>
                <mxCell id="1edKkdgHh0n9XkDn8Mb9-17" value="collector.push(token)" style="text;html=1;align=center;verticalAlign=middle;resizable=0;points=[];autosize=1;strokeColor=#82b366;fillColor=#d5e8d4;" parent="1" vertex="1">
                    <mxGeometry x="240" y="650" width="130" height="20" as="geometry"/>
                </mxCell>
                <mxCell id="1edKkdgHh0n9XkDn8Mb9-18" value="" style="endArrow=classic;html=1;entryX=0.011;entryY=0.662;entryDx=0;entryDy=0;entryPerimeter=0;" parent="1" source="1edKkdgHh0n9XkDn8Mb9-13" target="1edKkdgHh0n9XkDn8Mb9-17" edge="1">
                    <mxGeometry width="50" height="50" relative="1" as="geometry">
                        <mxPoint x="170" y="700" as="sourcePoint"/>
                        <mxPoint x="220" y="650" as="targetPoint"/>
                    </mxGeometry>
                </mxCell>
                <mxCell id="1edKkdgHh0n9XkDn8Mb9-19" value="" style="endArrow=classic;html=1;entryX=0.25;entryY=1;entryDx=0;entryDy=0;" parent="1" source="1edKkdgHh0n9XkDn8Mb9-17" target="1edKkdgHh0n9XkDn8Mb9-28" edge="1">
                    <mxGeometry width="50" height="50" relative="1" as="geometry">
                        <mxPoint x="380" y="660" as="sourcePoint"/>
                        <mxPoint x="430" y="460" as="targetPoint"/>
                    </mxGeometry>
                </mxCell>
                <mxCell id="1edKkdgHh0n9XkDn8Mb9-20" value="token = [&quot;#&quot;, &quot;arr&quot;]" style="text;html=1;align=center;verticalAlign=middle;resizable=0;points=[];autosize=1;strokeColor=none;fillColor=none;" parent="1" vertex="1">
                    <mxGeometry x="45" y="710" width="110" height="20" as="geometry"/>
                </mxCell>
                <mxCell id="1edKkdgHh0n9XkDn8Mb9-21" value="collector.push(token)" style="text;html=1;align=center;verticalAlign=middle;resizable=0;points=[];autosize=1;strokeColor=#82b366;fillColor=#d5e8d4;" parent="1" vertex="1">
                    <mxGeometry x="240" y="710" width="130" height="20" as="geometry"/>
                </mxCell>
                <mxCell id="1edKkdgHh0n9XkDn8Mb9-22" value="" style="endArrow=classic;html=1;entryX=-0.008;entryY=0.524;entryDx=0;entryDy=0;entryPerimeter=0;exitX=1.014;exitY=0.559;exitDx=0;exitDy=0;exitPerimeter=0;" parent="1" source="1edKkdgHh0n9XkDn8Mb9-20" target="1edKkdgHh0n9XkDn8Mb9-21" edge="1">
                    <mxGeometry width="50" height="50" relative="1" as="geometry">
                        <mxPoint x="180" y="750" as="sourcePoint"/>
                        <mxPoint x="230" y="700" as="targetPoint"/>
                    </mxGeometry>
                </mxCell>
                <mxCell id="1edKkdgHh0n9XkDn8Mb9-23" value="" style="endArrow=classic;html=1;exitX=1;exitY=0.11;exitDx=0;exitDy=0;exitPerimeter=0;entryX=0.5;entryY=1;entryDx=0;entryDy=0;" parent="1" source="1edKkdgHh0n9XkDn8Mb9-21" target="1edKkdgHh0n9XkDn8Mb9-29" edge="1">
                    <mxGeometry width="50" height="50" relative="1" as="geometry">
                        <mxPoint x="410" y="600" as="sourcePoint"/>
                        <mxPoint x="470" y="460" as="targetPoint"/>
                    </mxGeometry>
                </mxCell>
                <mxCell id="1edKkdgHh0n9XkDn8Mb9-27" style="edgeStyle=none;rounded=0;orthogonalLoop=1;jettySize=auto;html=1;exitX=0.998;exitY=0.559;exitDx=0;exitDy=0;exitPerimeter=0;entryX=0;entryY=0.5;entryDx=0;entryDy=0;" parent="1" source="1edKkdgHh0n9XkDn8Mb9-24" target="1edKkdgHh0n9XkDn8Mb9-30" edge="1">
                    <mxGeometry relative="1" as="geometry">
                        <mxPoint x="800" y="600" as="targetPoint"/>
                    </mxGeometry>
                </mxCell>
                <mxCell id="1edKkdgHh0n9XkDn8Mb9-34" style="edgeStyle=none;rounded=0;orthogonalLoop=1;jettySize=auto;html=1;" parent="1" source="1edKkdgHh0n9XkDn8Mb9-24" target="1edKkdgHh0n9XkDn8Mb9-33" edge="1">
                    <mxGeometry relative="1" as="geometry"/>
                </mxCell>
                <mxCell id="1edKkdgHh0n9XkDn8Mb9-24" value="sections.push(token)" style="text;html=1;align=center;verticalAlign=middle;resizable=0;points=[];autosize=1;strokeColor=none;fillColor=none;" parent="1" vertex="1">
                    <mxGeometry x="430" y="710" width="130" height="20" as="geometry"/>
                </mxCell>
                <mxCell id="1edKkdgHh0n9XkDn8Mb9-25" value="" style="endArrow=classic;html=1;exitX=1.011;exitY=0.524;exitDx=0;exitDy=0;exitPerimeter=0;" parent="1" source="1edKkdgHh0n9XkDn8Mb9-21" edge="1">
                    <mxGeometry width="50" height="50" relative="1" as="geometry">
                        <mxPoint x="380" y="770" as="sourcePoint"/>
                        <mxPoint x="430" y="720" as="targetPoint"/>
                    </mxGeometry>
                </mxCell>
                <mxCell id="1edKkdgHh0n9XkDn8Mb9-28" value="" style="rounded=0;whiteSpace=wrap;html=1;fillColor=#ffe6cc;strokeColor=#d79b00;" parent="1" vertex="1">
                    <mxGeometry x="420" y="430" width="20" height="20" as="geometry"/>
                </mxCell>
                <mxCell id="1edKkdgHh0n9XkDn8Mb9-29" value="" style="rounded=0;whiteSpace=wrap;html=1;fillColor=#dae8fc;strokeColor=#6c8ebf;" parent="1" vertex="1">
                    <mxGeometry x="440" y="430" width="20" height="20" as="geometry"/>
                </mxCell>
                <mxCell id="1edKkdgHh0n9XkDn8Mb9-30" value="" style="rounded=0;whiteSpace=wrap;html=1;fillColor=#ffe6cc;strokeColor=#d79b00;" parent="1" vertex="1">
                    <mxGeometry x="825" y="590" width="50" height="20" as="geometry"/>
                </mxCell>
                <mxCell id="1edKkdgHh0n9XkDn8Mb9-36" style="edgeStyle=none;rounded=0;orthogonalLoop=1;jettySize=auto;html=1;" parent="1" source="1edKkdgHh0n9XkDn8Mb9-33" target="1edKkdgHh0n9XkDn8Mb9-35" edge="1">
                    <mxGeometry relative="1" as="geometry"/>
                </mxCell>
                <mxCell id="1edKkdgHh0n9XkDn8Mb9-33" value="collector = token[2] = []" style="text;html=1;align=center;verticalAlign=middle;resizable=0;points=[];autosize=1;strokeColor=#82b366;fillColor=#d5e8d4;" parent="1" vertex="1">
                    <mxGeometry x="630" y="710" width="140" height="20" as="geometry"/>
                </mxCell>
                <mxCell id="1edKkdgHh0n9XkDn8Mb9-38" style="edgeStyle=none;rounded=0;orthogonalLoop=1;jettySize=auto;html=1;entryX=0.013;entryY=0.455;entryDx=0;entryDy=0;entryPerimeter=0;" parent="1" source="1edKkdgHh0n9XkDn8Mb9-35" target="1edKkdgHh0n9XkDn8Mb9-37" edge="1">
                    <mxGeometry relative="1" as="geometry"/>
                </mxCell>
                <mxCell id="1edKkdgHh0n9XkDn8Mb9-35" value="token = [ &quot;#&quot;, [] ]" style="text;html=1;align=center;verticalAlign=middle;resizable=0;points=[];autosize=1;strokeColor=none;fillColor=none;" parent="1" vertex="1">
                    <mxGeometry x="810" y="710" width="100" height="20" as="geometry"/>
                </mxCell>
                <mxCell id="1edKkdgHh0n9XkDn8Mb9-37" value="collector = []" style="text;html=1;align=center;verticalAlign=middle;resizable=0;points=[];autosize=1;strokeColor=none;fillColor=none;" parent="1" vertex="1">
                    <mxGeometry x="960" y="710" width="80" height="20" as="geometry"/>
                </mxCell>
                <mxCell id="1edKkdgHh0n9XkDn8Mb9-42" style="edgeStyle=none;rounded=0;orthogonalLoop=1;jettySize=auto;html=1;entryX=0.006;entryY=0.593;entryDx=0;entryDy=0;entryPerimeter=0;" parent="1" source="1edKkdgHh0n9XkDn8Mb9-39" target="1edKkdgHh0n9XkDn8Mb9-41" edge="1">
                    <mxGeometry relative="1" as="geometry"/>
                </mxCell>
                <mxCell id="1edKkdgHh0n9XkDn8Mb9-69" style="edgeStyle=none;rounded=0;orthogonalLoop=1;jettySize=auto;html=1;entryX=0.009;entryY=0.571;entryDx=0;entryDy=0;entryPerimeter=0;" parent="1" source="1edKkdgHh0n9XkDn8Mb9-39" target="1edKkdgHh0n9XkDn8Mb9-68" edge="1">
                    <mxGeometry relative="1" as="geometry"/>
                </mxCell>
                <mxCell id="1edKkdgHh0n9XkDn8Mb9-39" value="token = [&quot;/&quot;, &quot;arr&quot;]" style="text;html=1;align=center;verticalAlign=middle;resizable=0;points=[];autosize=1;strokeColor=none;fillColor=none;" parent="1" vertex="1">
                    <mxGeometry x="40" y="770" width="110" height="20" as="geometry"/>
                </mxCell>
                <mxCell id="1edKkdgHh0n9XkDn8Mb9-40" value="..." style="text;html=1;align=center;verticalAlign=middle;resizable=0;points=[];autosize=1;strokeColor=none;fillColor=none;fontStyle=1" parent="1" vertex="1">
                    <mxGeometry x="45" y="740" width="30" height="20" as="geometry"/>
                </mxCell>
                <mxCell id="1edKkdgHh0n9XkDn8Mb9-75" style="edgeStyle=none;rounded=0;orthogonalLoop=1;jettySize=auto;html=1;entryX=0;entryY=0.5;entryDx=0;entryDy=0;" parent="1" source="1edKkdgHh0n9XkDn8Mb9-41" target="1edKkdgHh0n9XkDn8Mb9-46" edge="1">
                    <mxGeometry relative="1" as="geometry"/>
                </mxCell>
                <mxCell id="1edKkdgHh0n9XkDn8Mb9-41" value="collector = sections[sections.length - 1][2]" style="text;html=1;align=center;verticalAlign=middle;resizable=0;points=[];autosize=1;strokeColor=#82b366;fillColor=#d5e8d4;" parent="1" vertex="1">
                    <mxGeometry x="350" y="770" width="240" height="20" as="geometry"/>
                </mxCell>
                <mxCell id="1edKkdgHh0n9XkDn8Mb9-43" value="sections.length &amp;gt; 0" style="text;html=1;align=center;verticalAlign=middle;resizable=0;points=[];autosize=1;strokeColor=none;fillColor=none;" parent="1" vertex="1">
                    <mxGeometry x="190" y="760" width="120" height="20" as="geometry"/>
                </mxCell>
                <mxCell id="1edKkdgHh0n9XkDn8Mb9-44" value="" style="rounded=0;whiteSpace=wrap;html=1;fillColor=#dae8fc;strokeColor=#6c8ebf;" parent="1" vertex="1">
                    <mxGeometry x="825" y="570" width="50" height="20" as="geometry"/>
                </mxCell>
                <mxCell id="1edKkdgHh0n9XkDn8Mb9-45" value="" style="rounded=0;whiteSpace=wrap;html=1;fillColor=#d5e8d4;strokeColor=#82b366;" parent="1" vertex="1">
                    <mxGeometry x="825" y="550" width="50" height="20" as="geometry"/>
                </mxCell>
                <mxCell id="1edKkdgHh0n9XkDn8Mb9-76" style="edgeStyle=none;rounded=0;orthogonalLoop=1;jettySize=auto;html=1;entryX=0;entryY=1;entryDx=0;entryDy=0;" parent="1" source="1edKkdgHh0n9XkDn8Mb9-46" target="1edKkdgHh0n9XkDn8Mb9-50" edge="1">
                    <mxGeometry relative="1" as="geometry"/>
                </mxCell>
                <mxCell id="1edKkdgHh0n9XkDn8Mb9-46" value="" style="rounded=0;whiteSpace=wrap;html=1;fillColor=#fff2cc;strokeColor=#d6b656;" parent="1" vertex="1">
                    <mxGeometry x="825" y="530" width="50" height="20" as="geometry"/>
                </mxCell>
                <mxCell id="1edKkdgHh0n9XkDn8Mb9-47" value="" style="rounded=0;whiteSpace=wrap;html=1;fillColor=#fff2cc;strokeColor=#d6b656;" parent="1" vertex="1">
                    <mxGeometry x="460" y="430" width="20" height="20" as="geometry"/>
                </mxCell>
                <mxCell id="1edKkdgHh0n9XkDn8Mb9-67" style="edgeStyle=none;rounded=0;orthogonalLoop=1;jettySize=auto;html=1;entryX=0;entryY=0.5;entryDx=0;entryDy=0;" parent="1" source="1edKkdgHh0n9XkDn8Mb9-48" target="1edKkdgHh0n9XkDn8Mb9-50" edge="1">
                    <mxGeometry relative="1" as="geometry"/>
                </mxCell>
                <mxCell id="1edKkdgHh0n9XkDn8Mb9-48" value="" style="rounded=0;whiteSpace=wrap;html=1;fillColor=#d5e8d4;strokeColor=#82b366;" parent="1" vertex="1">
                    <mxGeometry x="480" y="430" width="20" height="20" as="geometry"/>
                </mxCell>
                <mxCell id="1edKkdgHh0n9XkDn8Mb9-64" value="" style="group" parent="1" vertex="1" connectable="0">
                    <mxGeometry x="910" y="404" width="250" height="20" as="geometry"/>
                </mxCell>
                <mxCell id="1edKkdgHh0n9XkDn8Mb9-59" value="" style="rounded=0;whiteSpace=wrap;html=1;" parent="1edKkdgHh0n9XkDn8Mb9-64" vertex="1">
                    <mxGeometry width="250" height="20" as="geometry"/>
                </mxCell>
                <mxCell id="1edKkdgHh0n9XkDn8Mb9-60" value="" style="rounded=0;whiteSpace=wrap;html=1;fillColor=#ffe6cc;strokeColor=#d79b00;" parent="1edKkdgHh0n9XkDn8Mb9-64" vertex="1">
                    <mxGeometry width="20" height="20" as="geometry"/>
                </mxCell>
                <mxCell id="1edKkdgHh0n9XkDn8Mb9-61" value="" style="rounded=0;whiteSpace=wrap;html=1;fillColor=#dae8fc;strokeColor=#6c8ebf;" parent="1edKkdgHh0n9XkDn8Mb9-64" vertex="1">
                    <mxGeometry x="20" width="20" height="20" as="geometry"/>
                </mxCell>
                <mxCell id="1edKkdgHh0n9XkDn8Mb9-62" value="" style="rounded=0;whiteSpace=wrap;html=1;fillColor=#fff2cc;strokeColor=#d6b656;" parent="1edKkdgHh0n9XkDn8Mb9-64" vertex="1">
                    <mxGeometry x="40" width="20" height="20" as="geometry"/>
                </mxCell>
                <mxCell id="1edKkdgHh0n9XkDn8Mb9-63" value="" style="rounded=0;whiteSpace=wrap;html=1;fillColor=#d5e8d4;strokeColor=#82b366;" parent="1edKkdgHh0n9XkDn8Mb9-64" vertex="1">
                    <mxGeometry x="60" width="20" height="20" as="geometry"/>
                </mxCell>
                <mxCell id="1edKkdgHh0n9XkDn8Mb9-65" value="" style="group" parent="1" vertex="1" connectable="0">
                    <mxGeometry x="750" y="380" width="110" height="20" as="geometry"/>
                </mxCell>
                <mxCell id="1edKkdgHh0n9XkDn8Mb9-49" value="" style="rounded=0;whiteSpace=wrap;html=1;fillColor=#ffe6cc;strokeColor=#d79b00;" parent="1edKkdgHh0n9XkDn8Mb9-65" vertex="1">
                    <mxGeometry width="110" height="20" as="geometry"/>
                </mxCell>
                <mxCell id="1edKkdgHh0n9XkDn8Mb9-50" value="#" style="rounded=0;whiteSpace=wrap;html=1;" parent="1edKkdgHh0n9XkDn8Mb9-65" vertex="1">
                    <mxGeometry width="35" height="20" as="geometry"/>
                </mxCell>
                <mxCell id="1edKkdgHh0n9XkDn8Mb9-51" value="arr" style="rounded=0;whiteSpace=wrap;html=1;" parent="1edKkdgHh0n9XkDn8Mb9-65" vertex="1">
                    <mxGeometry x="35" width="35" height="20" as="geometry"/>
                </mxCell>
                <mxCell id="1edKkdgHh0n9XkDn8Mb9-52" value="" style="rounded=0;whiteSpace=wrap;html=1;fillColor=#d5e8d4;strokeColor=#82b366;" parent="1edKkdgHh0n9XkDn8Mb9-65" vertex="1">
                    <mxGeometry x="70" width="35" height="20" as="geometry"/>
                </mxCell>
                <mxCell id="1edKkdgHh0n9XkDn8Mb9-66" style="edgeStyle=none;rounded=0;orthogonalLoop=1;jettySize=auto;html=1;entryX=0;entryY=0;entryDx=0;entryDy=0;" parent="1" source="1edKkdgHh0n9XkDn8Mb9-52" target="1edKkdgHh0n9XkDn8Mb9-60" edge="1">
                    <mxGeometry relative="1" as="geometry"/>
                </mxCell>
                <mxCell id="1edKkdgHh0n9XkDn8Mb9-68" value="collector = nextedTokens" style="text;html=1;align=center;verticalAlign=middle;resizable=0;points=[];autosize=1;strokeColor=#82b366;fillColor=#d5e8d4;" parent="1" vertex="1">
                    <mxGeometry x="350" y="807" width="150" height="20" as="geometry"/>
                </mxCell>
                <mxCell id="1edKkdgHh0n9XkDn8Mb9-70" value="sections.length == 0" style="text;html=1;align=center;verticalAlign=middle;resizable=0;points=[];autosize=1;strokeColor=none;fillColor=none;" parent="1" vertex="1">
                    <mxGeometry x="150" y="807" width="120" height="20" as="geometry"/>
                </mxCell>
                <mxCell id="1edKkdgHh0n9XkDn8Mb9-72" value="" style="shape=flexArrow;endArrow=classic;html=1;fillColor=#d5e8d4;strokeColor=#82b366;" parent="1" edge="1">
                    <mxGeometry width="50" height="50" relative="1" as="geometry">
                        <mxPoint x="430" y="510" as="sourcePoint"/>
                        <mxPoint x="430" y="460" as="targetPoint"/>
                    </mxGeometry>
                </mxCell>
                <mxCell id="1edKkdgHh0n9XkDn8Mb9-73" value="collector = nextedTokens" style="text;html=1;align=center;verticalAlign=middle;resizable=0;points=[];autosize=1;strokeColor=#82b366;fillColor=#d5e8d4;" parent="1" vertex="1">
                    <mxGeometry x="70" y="510" width="150" height="20" as="geometry"/>
                </mxCell>
                <mxCell id="1edKkdgHh0n9XkDn8Mb9-74" value="" style="shape=flexArrow;endArrow=classic;html=1;fillColor=#d5e8d4;strokeColor=#82b366;" parent="1" edge="1">
                    <mxGeometry width="50" height="50" relative="1" as="geometry">
                        <mxPoint x="825" y="450" as="sourcePoint"/>
                        <mxPoint x="825" y="400" as="targetPoint"/>
                    </mxGeometry>
                </mxCell>
                <mxCell id="1edKkdgHh0n9XkDn8Mb9-77" value="" style="shape=flexArrow;endArrow=classic;html=1;fillColor=#d5e8d4;strokeColor=#82b366;" parent="1" edge="1">
                    <mxGeometry width="50" height="50" relative="1" as="geometry">
                        <mxPoint x="910" y="474" as="sourcePoint"/>
                        <mxPoint x="910" y="424" as="targetPoint"/>
                    </mxGeometry>
                </mxCell>
            </root>
        </mxGraphModel>
    </diagram>
</mxfile>